<svg width="18" height="20" viewBox="0 0 18 20" fill="none" xmlns="http://www.w3.org/2000/svg">
<path d="M11.1775 1.6752L11.3962 1.34714L11.6149 1.02688L12.0992 0.300453C12.1617 0.214531 12.1383 0.0895532 12.0445 0.0348755C11.9586 -0.0276132 11.8336 -0.00417895 11.779 0.0895541L11.2634 0.862851L11.0447 1.19092L10.826 1.51898C10.123 1.24559 9.3497 1.09718 8.52173 1.09718C7.70156 1.09718 6.92045 1.24559 6.21746 1.51898L5.99875 1.19092L5.78003 0.862851L5.2645 0.0895541C5.20201 0.00363214 5.08485 -0.0198021 4.99893 0.0348755C4.913 0.0973643 4.88957 0.214531 4.94425 0.300453L5.42854 1.02688L5.64725 1.34714L5.86596 1.6752C4.22563 2.44069 3.10864 3.88574 3.10864 5.5495H13.9426C13.9348 3.88574 12.8256 2.44069 11.1775 1.6752ZM6.19402 3.9951C5.87377 3.9951 5.616 3.73733 5.616 3.41708C5.616 3.09682 5.87377 2.83906 6.19402 2.83906C6.51428 2.83906 6.77204 3.09682 6.77204 3.41708C6.77204 3.73733 6.51428 3.9951 6.19402 3.9951ZM10.8338 3.9951C10.5136 3.9951 10.2558 3.73733 10.2558 3.41708C10.2558 3.09682 10.5136 2.83906 10.8338 2.83906C11.1541 2.83906 11.4118 3.09682 11.4118 3.41708C11.4196 3.73733 11.1619 3.9951 10.8338 3.9951Z" fill="#FFF6F0"/>
<path d="M3.17894 6.31494L3.09302 6.32275V7.28352V8.07244V14.8368C3.09302 15.5164 3.63979 16.0632 4.31936 16.0632H5.20201C5.17077 16.1647 5.15515 16.2741 5.15515 16.3834V16.4459V16.8365V18.8361C5.15515 19.4766 5.67849 20 6.319 20C6.95951 20 7.48285 19.4766 7.48285 18.8361V16.8365V16.4459V16.3834C7.48285 16.2741 7.46723 16.1647 7.43598 16.0632H9.59184C9.5606 16.1647 9.54498 16.2741 9.54498 16.3834V16.4459V16.8365V18.8361C9.54498 19.4766 10.0683 20 10.7088 20C11.3493 20 11.8727 19.4766 11.8727 18.8361V16.8365V16.4459V16.3834C11.8727 16.2741 11.8571 16.1647 11.8258 16.0632H12.7085C13.388 16.0632 13.9348 15.5164 13.9348 14.8368V8.07244V7.28352V6.31494H13.8489H3.17894Z" fill="#FFF6F0"/>
<path d="M1.16361 6.32275C0.523098 6.32275 -0.000244141 6.8461 -0.000244141 7.48661V12.4545C-0.000244141 13.095 0.523098 13.6183 1.16361 13.6183C1.80412 13.6183 2.32746 13.095 2.32746 12.4545V7.48661C2.31965 6.83829 1.80412 6.32275 1.16361 6.32275Z" fill="#FFF6F0"/>
<path d="M15.8719 6.32275C15.2314 6.32275 14.708 6.8461 14.708 7.48661V12.4545C14.708 13.095 15.2314 13.6183 15.8719 13.6183C16.5124 13.6183 17.0357 13.095 17.0357 12.4545V7.48661C17.0279 6.83829 16.5124 6.32275 15.8719 6.32275Z" fill="#FFF6F0"/>
</svg>
