<svg width="195" height="55" viewBox="0 0 195 55" fill="none" xmlns="http://www.w3.org/2000/svg">
<path fill-rule="evenodd" clip-rule="evenodd" d="M22.1339 35.7404C20.819 35.9566 19.449 36.0709 18.0414 36.0709C8.07742 36.0709 0 30.3441 0 23.2798C0 16.2155 8.07742 10.4887 18.0414 10.4887C18.3973 10.4887 18.7508 10.496 19.1015 10.5104C21.6034 5.57568 28.2626 2.04667 36.0844 2.04667C37.7435 2.04667 39.3504 2.20546 40.8763 2.50277C43.8738 0.930004 47.5827 0 51.5981 0C56.1614 0 60.329 1.20118 63.5063 3.18191C66.6835 1.20118 70.8511 0 75.4145 0C81.2746 0 86.4822 1.9809 89.7778 5.04978C92.9162 3.1758 96.9686 2.04667 101.393 2.04667C109.46 2.04667 116.291 5.80053 118.599 10.9789C121.053 10.0929 123.831 9.59345 126.774 9.59345C136.738 9.59345 144.815 15.3202 144.815 22.3845C144.815 29.4489 136.738 35.1756 126.774 35.1756C124.955 35.1756 123.199 34.9848 121.544 34.6298C118.321 38.1168 112.761 40.4201 106.442 40.4201C101.341 40.4201 96.7349 38.9194 93.4535 36.5068C90.1721 38.9194 85.5659 40.4201 80.4652 40.4201C76.404 40.4201 72.6562 39.4687 69.641 37.8631C66.6258 39.4687 62.878 40.4201 58.8168 40.4201C54.5086 40.4201 50.553 39.3494 47.4506 37.5629C44.3482 39.3494 40.3926 40.4201 36.0844 40.4201C30.4633 40.4201 25.4426 38.5975 22.1339 35.7404Z" fill="#FFF6F0"/>
<path d="M11.2479 26.2104L9.19531 18.9377H10.6122L11.9226 24.2822H11.9901L13.3892 18.9377H14.6783L16.081 24.2857H16.1449L17.4553 18.9377H18.8722L16.8196 26.2104H15.5199L14.0639 21.1075H14.0071L12.5476 26.2104H11.2479ZM21.587 26.317C21.0401 26.317 20.5678 26.2033 20.1701 25.9761C19.7747 25.7464 19.4705 25.4221 19.2575 25.0031C19.0444 24.5817 18.9379 24.0857 18.9379 23.5151C18.9379 22.9541 19.0444 22.4616 19.2575 22.0379C19.4729 21.6117 19.7736 21.2803 20.1594 21.0435C20.5453 20.8044 20.9987 20.6849 21.5195 20.6849C21.8557 20.6849 22.1729 20.7393 22.4712 20.8482C22.7719 20.9548 23.0371 21.1205 23.2667 21.3454C23.4987 21.5703 23.681 21.8568 23.8136 22.2048C23.9461 22.5504 24.0124 22.9623 24.0124 23.4406V23.8347H19.5415V22.9683H22.7802C22.7778 22.722 22.7246 22.5031 22.6204 22.3113C22.5162 22.1172 22.3706 21.9645 22.1836 21.8532C21.9989 21.7419 21.7835 21.6863 21.5373 21.6863C21.2745 21.6863 21.0437 21.7502 20.8448 21.8781C20.646 22.0035 20.4909 22.1693 20.3796 22.3752C20.2707 22.5788 20.2151 22.8025 20.2127 23.0464V23.8028C20.2127 24.12 20.2707 24.3923 20.3867 24.6195C20.5027 24.8444 20.6649 25.0173 20.8732 25.138C21.0816 25.2564 21.3254 25.3156 21.6048 25.3156C21.7918 25.3156 21.9611 25.2895 22.1126 25.2374C22.2641 25.183 22.3955 25.1037 22.5067 24.9995C22.618 24.8953 22.7021 24.7663 22.7589 24.6124L23.9592 24.7474C23.8834 25.0646 23.739 25.3416 23.5259 25.5783C23.3152 25.8127 23.0453 25.995 22.7163 26.1252C22.3872 26.2531 22.0108 26.317 21.587 26.317ZM26.3855 18.9377V26.2104H25.1V18.9377H26.3855ZM28.9929 18.9377V26.2104H27.7074V18.9377H28.9929ZM31.6003 23.0144V26.2104H30.3148V20.7559H31.5435V21.6828H31.6074C31.7329 21.3774 31.9329 21.1347 32.2076 20.9548C32.4846 20.7748 32.8266 20.6849 33.2338 20.6849C33.6103 20.6849 33.9382 20.7654 34.2175 20.9264C34.4992 21.0873 34.717 21.3205 34.8709 21.6259C35.0272 21.9313 35.1041 22.3018 35.1017 22.7374V26.2104H33.8162V22.9363C33.8162 22.5717 33.7215 22.2864 33.5321 22.0805C33.3451 21.8745 33.0859 21.7715 32.7544 21.7715C32.5295 21.7715 32.3295 21.8212 32.1543 21.9207C31.9815 22.0177 31.8453 22.1586 31.7459 22.3433C31.6489 22.5279 31.6003 22.7516 31.6003 23.0144ZM38.8233 26.317C38.2765 26.317 37.8042 26.2033 37.4064 25.9761C37.0111 25.7464 36.7069 25.4221 36.4938 25.0031C36.2807 24.5817 36.1742 24.0857 36.1742 23.5151C36.1742 22.9541 36.2807 22.4616 36.4938 22.0379C36.7092 21.6117 37.0099 21.2803 37.3958 21.0435C37.7817 20.8044 38.235 20.6849 38.7559 20.6849C39.092 20.6849 39.4093 20.7393 39.7076 20.8482C40.0082 20.9548 40.2734 21.1205 40.503 21.3454C40.735 21.5703 40.9173 21.8568 41.0499 22.2048C41.1825 22.5504 41.2488 22.9623 41.2488 23.4406V23.8347H36.7779V22.9683H40.0165C40.0141 22.722 39.9609 22.5031 39.8567 22.3113C39.7525 22.1172 39.6069 21.9645 39.4199 21.8532C39.2353 21.7419 39.0198 21.6863 38.7736 21.6863C38.5108 21.6863 38.28 21.7502 38.0811 21.8781C37.8823 22.0035 37.7272 22.1693 37.6159 22.3752C37.507 22.5788 37.4514 22.8025 37.449 23.0464V23.8028C37.449 24.12 37.507 24.3923 37.623 24.6195C37.7391 24.8444 37.9012 25.0173 38.1096 25.138C38.3179 25.2564 38.5617 25.3156 38.8411 25.3156C39.0281 25.3156 39.1974 25.2895 39.3489 25.2374C39.5004 25.183 39.6318 25.1037 39.7431 24.9995C39.8543 24.8953 39.9384 24.7663 39.9952 24.6124L41.1955 24.7474C41.1197 25.0646 40.9753 25.3416 40.7623 25.5783C40.5516 25.8127 40.2817 25.995 39.9526 26.1252C39.6235 26.2531 39.2471 26.317 38.8233 26.317ZM46.6474 22.1977L45.4755 22.3255C45.4424 22.2071 45.3844 22.0959 45.3015 21.9917C45.221 21.8875 45.1121 21.8035 44.9748 21.7396C44.8375 21.6756 44.6694 21.6437 44.4705 21.6437C44.203 21.6437 43.9781 21.7017 43.7958 21.8177C43.6159 21.9337 43.5271 22.084 43.5295 22.2687C43.5271 22.4273 43.5851 22.5563 43.7035 22.6558C43.8242 22.7552 44.0231 22.8369 44.3001 22.9008L45.2305 23.0997C45.7466 23.2109 46.1301 23.3873 46.381 23.6288C46.6344 23.8703 46.7622 24.1863 46.7646 24.5769C46.7622 24.9202 46.6616 25.2232 46.4627 25.486C46.2662 25.7464 45.9928 25.95 45.6424 26.0968C45.292 26.2436 44.8896 26.317 44.435 26.317C43.7674 26.317 43.23 26.1773 42.8228 25.8979C42.4156 25.6162 42.1729 25.2244 42.0948 24.7225L43.3484 24.6018C43.4052 24.848 43.5259 25.0338 43.7106 25.1593C43.8952 25.2848 44.1355 25.3475 44.4315 25.3475C44.7369 25.3475 44.9819 25.2848 45.1665 25.1593C45.3536 25.0338 45.4471 24.8788 45.4471 24.6941C45.4471 24.5379 45.3867 24.4088 45.266 24.307C45.1476 24.2052 44.9629 24.1271 44.712 24.0727L43.7816 23.8774C43.2584 23.7685 42.8713 23.585 42.6204 23.3269C42.3694 23.0665 42.2451 22.7374 42.2475 22.3397C42.2451 22.0035 42.3363 21.7123 42.521 21.4661C42.708 21.2176 42.9672 21.0258 43.2987 20.8908C43.6325 20.7535 44.0172 20.6849 44.4528 20.6849C45.092 20.6849 45.5951 20.821 45.962 21.0933C46.3313 21.3655 46.5598 21.7336 46.6474 22.1977ZM52.1357 22.1977L50.9638 22.3255C50.9306 22.2071 50.8726 22.0959 50.7898 21.9917C50.7093 21.8875 50.6004 21.8035 50.4631 21.7396C50.3258 21.6756 50.1577 21.6437 49.9588 21.6437C49.6913 21.6437 49.4664 21.7017 49.2841 21.8177C49.1042 21.9337 49.0154 22.084 49.0178 22.2687C49.0154 22.4273 49.0734 22.5563 49.1918 22.6558C49.3125 22.7552 49.5114 22.8369 49.7884 22.9008L50.7188 23.0997C51.2348 23.2109 51.6184 23.3873 51.8693 23.6288C52.1226 23.8703 52.2505 24.1863 52.2528 24.5769C52.2505 24.9202 52.1499 25.2232 51.951 25.486C51.7545 25.7464 51.4811 25.95 51.1307 26.0968C50.7803 26.2436 50.3778 26.317 49.9233 26.317C49.2557 26.317 48.7183 26.1773 48.3111 25.8979C47.9039 25.6162 47.6612 25.2244 47.5831 24.7225L48.8366 24.6018C48.8935 24.848 49.0142 25.0338 49.1989 25.1593C49.3835 25.2848 49.6238 25.3475 49.9197 25.3475C50.2251 25.3475 50.4702 25.2848 50.6548 25.1593C50.8419 25.0338 50.9354 24.8788 50.9354 24.6941C50.9354 24.5379 50.875 24.4088 50.7543 24.307C50.6359 24.2052 50.4512 24.1271 50.2003 24.0727L49.2699 23.8774C48.7467 23.7685 48.3596 23.585 48.1087 23.3269C47.8577 23.0665 47.7334 22.7374 47.7358 22.3397C47.7334 22.0035 47.8246 21.7123 48.0092 21.4661C48.1963 21.2176 48.4555 21.0258 48.7869 20.8908C49.1207 20.7535 49.5054 20.6849 49.9411 20.6849C50.5803 20.6849 51.0833 20.821 51.4503 21.0933C51.8196 21.3655 52.0481 21.7336 52.1357 22.1977ZM58.517 20.7559V21.7502H55.3814V20.7559H58.517ZM56.1555 19.4491H57.4411V24.5698C57.4411 24.7426 57.4671 24.8752 57.5192 24.9676C57.5736 25.0575 57.6446 25.1191 57.7322 25.1522C57.8198 25.1854 57.9169 25.2019 58.0234 25.2019C58.1039 25.2019 58.1773 25.196 58.2436 25.1842C58.3123 25.1723 58.3643 25.1617 58.3999 25.1522L58.6165 26.1572C58.5478 26.1809 58.4496 26.2069 58.3217 26.2353C58.1963 26.2637 58.0424 26.2803 57.8601 26.285C57.5381 26.2945 57.2481 26.246 56.9901 26.1394C56.732 26.0305 56.5272 25.8624 56.3757 25.6352C56.2266 25.4079 56.1532 25.1238 56.1555 24.7829V19.4491ZM60.9949 23.0144V26.2104H59.7093V18.9377H60.9664V21.6828H61.0304C61.1582 21.375 61.3559 21.1323 61.6234 20.9548C61.8933 20.7748 62.2366 20.6849 62.6532 20.6849C63.032 20.6849 63.3623 20.7642 63.644 20.9228C63.9257 21.0814 64.1435 21.3134 64.2974 21.6188C64.4537 21.9242 64.5318 22.2971 64.5318 22.7374V26.2104H63.2463V22.9363C63.2463 22.5694 63.1516 22.2841 62.9622 22.0805C62.7752 21.8745 62.5124 21.7715 62.1738 21.7715C61.9466 21.7715 61.743 21.8212 61.563 21.9207C61.3855 22.0177 61.2458 22.1586 61.144 22.3433C61.0446 22.5279 60.9949 22.7516 60.9949 23.0144ZM65.8422 26.2104V20.7559H67.0886V21.665H67.1454C67.2449 21.3501 67.4153 21.1075 67.6568 20.937C67.9006 20.7642 68.1788 20.6778 68.4913 20.6778C68.5623 20.6778 68.6416 20.6813 68.7292 20.6884C68.8192 20.6932 68.8938 20.7015 68.9529 20.7133V21.8958C68.8985 21.8769 68.8121 21.8603 68.6937 21.8461C68.5777 21.8295 68.4653 21.8212 68.3564 21.8212C68.122 21.8212 67.9113 21.8721 67.7243 21.9739C67.5396 22.0734 67.394 22.2119 67.2875 22.3894C67.1809 22.567 67.1277 22.7718 67.1277 23.0038V26.2104H65.8422ZM71.9616 26.317C71.429 26.317 70.9673 26.1998 70.5767 25.9654C70.1861 25.731 69.883 25.4032 69.6676 24.9818C69.4545 24.5604 69.348 24.0679 69.348 23.5045C69.348 22.941 69.4545 22.4474 69.6676 22.0237C69.883 21.5999 70.1861 21.2708 70.5767 21.0364C70.9673 20.8021 71.429 20.6849 71.9616 20.6849C72.4943 20.6849 72.956 20.8021 73.3466 21.0364C73.7372 21.2708 74.0391 21.5999 74.2521 22.0237C74.4676 22.4474 74.5753 22.941 74.5753 23.5045C74.5753 24.0679 74.4676 24.5604 74.2521 24.9818C74.0391 25.4032 73.7372 25.731 73.3466 25.9654C72.956 26.1998 72.4943 26.317 71.9616 26.317ZM71.9688 25.2872C72.2576 25.2872 72.4991 25.2078 72.6932 25.0492C72.8873 24.8882 73.0317 24.6728 73.1264 24.4029C73.2235 24.133 73.272 23.8324 73.272 23.5009C73.272 23.1671 73.2235 22.8653 73.1264 22.5954C73.0317 22.3231 72.8873 22.1065 72.6932 21.9455C72.4991 21.7845 72.2576 21.7041 71.9688 21.7041C71.6728 21.7041 71.4266 21.7845 71.2301 21.9455C71.036 22.1065 70.8904 22.3231 70.7933 22.5954C70.6986 22.8653 70.6513 23.1671 70.6513 23.5009C70.6513 23.8324 70.6986 24.133 70.7933 24.4029C70.8904 24.6728 71.036 24.8882 71.2301 25.0492C71.4266 25.2078 71.6728 25.2872 71.9688 25.2872ZM79.1429 23.9164V20.7559H80.4284V26.2104H79.182V25.241H79.1252C79.0021 25.5464 78.7997 25.7961 78.5179 25.9903C78.2386 26.1844 77.8941 26.2815 77.4846 26.2815C77.1271 26.2815 76.811 26.2022 76.5364 26.0435C76.2641 25.8826 76.0511 25.6494 75.8972 25.344C75.7433 25.0362 75.6664 24.6645 75.6664 24.2289V20.7559H76.9519V24.0301C76.9519 24.3757 77.0466 24.6503 77.236 24.8539C77.4254 25.0575 77.6739 25.1593 77.9817 25.1593C78.1711 25.1593 78.3546 25.1131 78.5321 25.0208C78.7097 24.9285 78.8553 24.7912 78.9689 24.6089C79.0849 24.4242 79.1429 24.1934 79.1429 23.9164ZM84.1225 28.3695C83.6609 28.3695 83.2643 28.3068 82.9329 28.1813C82.6014 28.0582 82.3351 27.8925 82.1339 27.6842C81.9326 27.4758 81.793 27.245 81.7148 26.9917L82.8725 26.7112C82.9246 26.8177 83.0004 26.923 83.0998 27.0272C83.1992 27.1337 83.333 27.2213 83.5011 27.29C83.6715 27.361 83.8858 27.3965 84.1438 27.3965C84.5084 27.3965 84.8103 27.3078 85.0494 27.1302C85.2885 26.955 85.408 26.6662 85.408 26.2637V25.2303H85.3441C85.2778 25.3629 85.1808 25.499 85.0529 25.6387C84.9274 25.7784 84.7605 25.8956 84.5522 25.9903C84.3462 26.085 84.087 26.1323 83.7745 26.1323C83.3555 26.1323 82.9755 26.0341 82.6346 25.8376C82.296 25.6387 82.0262 25.3428 81.8249 24.9498C81.6261 24.5544 81.5266 24.0596 81.5266 23.4654C81.5266 22.8665 81.6261 22.361 81.8249 21.9491C82.0262 21.5348 82.2972 21.2211 82.6381 21.008C82.979 20.7926 83.359 20.6849 83.7781 20.6849C84.0977 20.6849 84.3604 20.7393 84.5664 20.8482C84.7747 20.9548 84.9405 21.0838 85.0636 21.2353C85.1867 21.3845 85.2802 21.5253 85.3441 21.6579H85.4151V20.7559H86.6829V26.2992C86.6829 26.7656 86.5716 27.1515 86.3491 27.4569C86.1265 27.7623 85.8223 27.9908 85.4364 28.1423C85.0505 28.2938 84.6126 28.3695 84.1225 28.3695ZM84.1332 25.1238C84.4054 25.1238 84.6374 25.0575 84.8292 24.9249C85.021 24.7924 85.1665 24.6018 85.266 24.3532C85.3654 24.1046 85.4151 23.8063 85.4151 23.4583C85.4151 23.115 85.3654 22.8144 85.266 22.5563C85.1689 22.2983 85.0245 22.0982 84.8327 21.9562C84.6433 21.8118 84.4102 21.7396 84.1332 21.7396C83.8467 21.7396 83.6076 21.8141 83.4158 21.9633C83.2241 22.1124 83.0797 22.3172 82.9826 22.5776C82.8855 22.8357 82.837 23.1292 82.837 23.4583C82.837 23.7921 82.8855 24.0845 82.9826 24.3354C83.082 24.584 83.2276 24.7782 83.4194 24.9178C83.6135 25.0551 83.8514 25.1238 84.1332 25.1238ZM89.2859 23.0144V26.2104H88.0004V18.9377H89.2575V21.6828H89.3214C89.4492 21.375 89.6469 21.1323 89.9144 20.9548C90.1843 20.7748 90.5276 20.6849 90.9442 20.6849C91.323 20.6849 91.6533 20.7642 91.935 20.9228C92.2167 21.0814 92.4345 21.3134 92.5884 21.6188C92.7447 21.9242 92.8228 22.2971 92.8228 22.7374V26.2104H91.5373V22.9363C91.5373 22.5694 91.4426 22.2841 91.2532 22.0805C91.0662 21.8745 90.8034 21.7715 90.4648 21.7715C90.2376 21.7715 90.034 21.8212 89.854 21.9207C89.6765 22.0177 89.5368 22.1586 89.435 22.3433C89.3356 22.5279 89.2859 22.7516 89.2859 23.0144ZM96.6705 26.2104V18.9377H97.956V21.6579H98.0092C98.0755 21.5253 98.169 21.3845 98.2898 21.2353C98.4105 21.0838 98.5739 20.9548 98.7798 20.8482C98.9858 20.7393 99.2486 20.6849 99.5682 20.6849C99.9896 20.6849 100.37 20.7926 100.708 21.008C101.049 21.2211 101.319 21.5372 101.518 21.9562C101.719 22.3729 101.82 22.8842 101.82 23.4903C101.82 24.0892 101.721 24.5982 101.525 25.0173C101.328 25.4363 101.061 25.7559 100.722 25.9761C100.384 26.1962 100 26.3063 99.5717 26.3063C99.2592 26.3063 99 26.2542 98.794 26.1501C98.5881 26.0459 98.4223 25.9204 98.2969 25.7737C98.1738 25.6245 98.0779 25.4836 98.0092 25.3511H97.9347V26.2104H96.6705ZM97.9311 23.4832C97.9311 23.8359 97.9808 24.1449 98.0803 24.41C98.1821 24.6752 98.3277 24.8823 98.517 25.0315C98.7088 25.1783 98.9408 25.2516 99.2131 25.2516C99.4972 25.2516 99.7351 25.1759 99.9268 25.0244C100.119 24.8705 100.263 24.661 100.36 24.3958C100.46 24.1283 100.509 23.8241 100.509 23.4832C100.509 23.1446 100.461 22.844 100.364 22.5812C100.267 22.3184 100.122 22.1124 99.9304 21.9633C99.7386 21.8141 99.4995 21.7396 99.2131 21.7396C98.9384 21.7396 98.7053 21.8118 98.5135 21.9562C98.3217 22.1006 98.1761 22.303 98.0767 22.5634C97.9796 22.8238 97.9311 23.1304 97.9311 23.4832ZM104.482 26.3205C104.136 26.3205 103.825 26.259 103.548 26.1359C103.273 26.0104 103.056 25.8257 102.895 25.5819C102.736 25.3381 102.657 25.0374 102.657 24.6799C102.657 24.3721 102.714 24.1176 102.827 23.9164C102.941 23.7152 103.096 23.5542 103.292 23.4335C103.489 23.3127 103.71 23.2216 103.956 23.16C104.205 23.0961 104.462 23.0499 104.727 23.0215C105.047 22.9884 105.306 22.9588 105.505 22.9328C105.704 22.9043 105.848 22.8617 105.938 22.8049C106.03 22.7457 106.077 22.6546 106.077 22.5315V22.5102C106.077 22.2426 105.997 22.0355 105.839 21.8887C105.68 21.7419 105.452 21.6685 105.153 21.6685C104.838 21.6685 104.589 21.7372 104.404 21.8745C104.222 22.0118 104.099 22.174 104.035 22.361L102.834 22.1906C102.929 21.8591 103.085 21.5821 103.303 21.3596C103.521 21.1347 103.787 20.9666 104.102 20.8553C104.417 20.7417 104.765 20.6849 105.146 20.6849C105.409 20.6849 105.671 20.7157 105.931 20.7772C106.191 20.8388 106.429 20.9406 106.645 21.0826C106.86 21.2223 107.033 21.4129 107.163 21.6543C107.296 21.8958 107.362 22.1977 107.362 22.5599V26.2104H106.126V25.4612H106.084C106.006 25.6127 105.895 25.7547 105.753 25.8873C105.614 26.0175 105.437 26.1229 105.224 26.2033C105.014 26.2815 104.766 26.3205 104.482 26.3205ZM104.816 25.3759C105.074 25.3759 105.298 25.325 105.487 25.2232C105.676 25.1191 105.822 24.9818 105.924 24.8113C106.028 24.6408 106.08 24.455 106.08 24.2538V23.611C106.04 23.6442 105.971 23.6749 105.874 23.7033C105.779 23.7318 105.673 23.7566 105.555 23.7779C105.436 23.7992 105.319 23.8182 105.203 23.8347C105.087 23.8513 104.986 23.8655 104.901 23.8774C104.709 23.9034 104.538 23.946 104.386 24.0052C104.235 24.0644 104.115 24.1472 104.028 24.2538C103.94 24.3579 103.896 24.4929 103.896 24.6586C103.896 24.8953 103.983 25.0741 104.155 25.1948C104.328 25.3156 104.548 25.3759 104.816 25.3759ZM109.94 18.9377V26.2104H108.655V18.9377H109.94ZM112.832 26.3205C112.486 26.3205 112.175 26.259 111.898 26.1359C111.623 26.0104 111.405 25.8257 111.244 25.5819C111.086 25.3381 111.006 25.0374 111.006 24.6799C111.006 24.3721 111.063 24.1176 111.177 23.9164C111.29 23.7152 111.446 23.5542 111.642 23.4335C111.839 23.3127 112.06 23.2216 112.306 23.16C112.555 23.0961 112.812 23.0499 113.077 23.0215C113.396 22.9884 113.656 22.9588 113.854 22.9328C114.053 22.9043 114.198 22.8617 114.288 22.8049C114.38 22.7457 114.426 22.6546 114.426 22.5315V22.5102C114.426 22.2426 114.347 22.0355 114.188 21.8887C114.03 21.7419 113.801 21.6685 113.503 21.6685C113.188 21.6685 112.938 21.7372 112.754 21.8745C112.571 22.0118 112.448 22.174 112.384 22.361L111.184 22.1906C111.279 21.8591 111.435 21.5821 111.653 21.3596C111.871 21.1347 112.137 20.9666 112.452 20.8553C112.767 20.7417 113.115 20.6849 113.496 20.6849C113.759 20.6849 114.02 20.7157 114.281 20.7772C114.541 20.8388 114.779 20.9406 114.994 21.0826C115.21 21.2223 115.383 21.4129 115.513 21.6543C115.645 21.8958 115.712 22.1977 115.712 22.5599V26.2104H114.476V25.4612H114.433C114.355 25.6127 114.245 25.7547 114.103 25.8873C113.963 26.0175 113.787 26.1229 113.574 26.2033C113.363 26.2815 113.116 26.3205 112.832 26.3205ZM113.165 25.3759C113.424 25.3759 113.647 25.325 113.837 25.2232C114.026 25.1191 114.172 24.9818 114.273 24.8113C114.378 24.6408 114.43 24.455 114.43 24.2538V23.611C114.389 23.6442 114.321 23.6749 114.224 23.7033C114.129 23.7318 114.022 23.7566 113.904 23.7779C113.786 23.7992 113.669 23.8182 113.553 23.8347C113.437 23.8513 113.336 23.8655 113.251 23.8774C113.059 23.9034 112.887 23.946 112.736 24.0052C112.584 24.0644 112.465 24.1472 112.377 24.2538C112.29 24.3579 112.246 24.4929 112.246 24.6586C112.246 24.8953 112.332 25.0741 112.505 25.1948C112.678 25.3156 112.898 25.3759 113.165 25.3759ZM118.29 23.0144V26.2104H117.004V20.7559H118.233V21.6828H118.297C118.422 21.3774 118.622 21.1347 118.897 20.9548C119.174 20.7748 119.516 20.6849 119.923 20.6849C120.3 20.6849 120.628 20.7654 120.907 20.9264C121.189 21.0873 121.406 21.3205 121.56 21.6259C121.717 21.9313 121.794 22.3018 121.791 22.7374V26.2104H120.506V22.9363C120.506 22.5717 120.411 22.2864 120.222 22.0805C120.035 21.8745 119.775 21.7715 119.444 21.7715C119.219 21.7715 119.019 21.8212 118.844 21.9207C118.671 22.0177 118.535 22.1586 118.435 22.3433C118.338 22.5279 118.29 22.7516 118.29 23.0144ZM125.477 26.317C124.933 26.317 124.465 26.1974 124.075 25.9583C123.686 25.7192 123.387 25.389 123.176 24.9676C122.968 24.5438 122.864 24.0561 122.864 23.5045C122.864 22.9505 122.97 22.4616 123.183 22.0379C123.396 21.6117 123.697 21.2803 124.085 21.0435C124.476 20.8044 124.938 20.6849 125.47 20.6849C125.913 20.6849 126.305 20.7666 126.646 20.9299C126.989 21.0909 127.262 21.3194 127.466 21.6153C127.67 21.9088 127.786 22.2521 127.814 22.6451H126.585C126.536 22.3823 126.417 22.1633 126.23 21.9881C126.045 21.8106 125.798 21.7218 125.488 21.7218C125.225 21.7218 124.994 21.7928 124.795 21.9349C124.597 22.0746 124.442 22.2758 124.33 22.5386C124.221 22.8014 124.167 23.1162 124.167 23.4832C124.167 23.8549 124.221 24.1745 124.33 24.442C124.439 24.7071 124.592 24.9119 124.788 25.0563C124.987 25.1984 125.22 25.2694 125.488 25.2694C125.677 25.2694 125.847 25.2339 125.996 25.1629C126.147 25.0895 126.274 24.9841 126.376 24.8468C126.478 24.7095 126.547 24.5426 126.585 24.3461H127.814C127.783 24.732 127.67 25.0741 127.473 25.3724C127.277 25.6683 127.009 25.9003 126.67 26.0684C126.332 26.2341 125.934 26.317 125.477 26.317ZM131.284 26.317C130.737 26.317 130.265 26.2033 129.867 25.9761C129.472 25.7464 129.168 25.4221 128.955 25.0031C128.742 24.5817 128.635 24.0857 128.635 23.5151C128.635 22.9541 128.742 22.4616 128.955 22.0379C129.17 21.6117 129.471 21.2803 129.857 21.0435C130.243 20.8044 130.696 20.6849 131.217 20.6849C131.553 20.6849 131.87 20.7393 132.169 20.8482C132.469 20.9548 132.734 21.1205 132.964 21.3454C133.196 21.5703 133.378 21.8568 133.511 22.2048C133.643 22.5504 133.71 22.9623 133.71 23.4406V23.8347H129.239V22.9683H132.477C132.475 22.722 132.422 22.5031 132.318 22.3113C132.213 22.1172 132.068 21.9645 131.881 21.8532C131.696 21.7419 131.481 21.6863 131.235 21.6863C130.972 21.6863 130.741 21.7502 130.542 21.8781C130.343 22.0035 130.188 22.1693 130.077 22.3752C129.968 22.5788 129.912 22.8025 129.91 23.0464V23.8028C129.91 24.12 129.968 24.3923 130.084 24.6195C130.2 24.8444 130.362 25.0173 130.57 25.138C130.779 25.2564 131.023 25.3156 131.302 25.3156C131.489 25.3156 131.658 25.2895 131.81 25.2374C131.961 25.183 132.093 25.1037 132.204 24.9995C132.315 24.8953 132.399 24.7663 132.456 24.6124L133.656 24.7474C133.581 25.0646 133.436 25.3416 133.223 25.5783C133.012 25.8127 132.743 25.995 132.414 26.1252C132.084 26.2531 131.708 26.317 131.284 26.317ZM135.589 26.2886C135.374 26.2886 135.189 26.2128 135.035 26.0613C134.881 25.9098 134.806 25.7251 134.808 25.5073C134.806 25.2943 134.881 25.112 135.035 24.9604C135.189 24.8089 135.374 24.7332 135.589 24.7332C135.797 24.7332 135.979 24.8089 136.132 24.9604C136.289 25.112 136.368 25.2943 136.37 25.5073C136.368 25.6517 136.33 25.7831 136.257 25.9015C136.186 26.0199 136.091 26.1146 135.973 26.1856C135.857 26.2542 135.729 26.2886 135.589 26.2886Z" fill="#FF9950"/>
<path fill-rule="evenodd" clip-rule="evenodd" d="M156.644 49.5414C156.532 49.5488 156.419 49.5526 156.306 49.5526C153.928 49.5526 152 47.9021 152 45.8661C152 43.8301 153.928 42.1796 156.306 42.1796C157.016 42.1796 157.686 42.3269 158.277 42.5879C159.054 41.6284 160.35 41 161.817 41C163.903 41 165.642 42.2697 166.038 43.9555C166.123 43.9512 166.208 43.9491 166.294 43.9491C168.672 43.9491 170.599 45.5996 170.599 47.6356C170.599 49.6716 168.672 51.3221 166.294 51.3221C165.509 51.3221 164.773 51.1423 164.14 50.8283C163.351 51.669 162.14 52.2071 160.782 52.2071C158.818 52.2071 157.161 51.0808 156.644 49.5414Z" fill="#FFF6F0"/>
<path d="M194.307 52.8687C194.307 53.9007 192.671 54.7373 190.654 54.7373C188.636 54.7373 187 53.9007 187 52.8687C187 51.8366 188.636 51 190.654 51C192.671 51 194.307 51.8366 194.307 52.8687Z" fill="#FFF6F0"/>
</svg>
