<svg width="77" height="74" viewBox="0 0 77 74" fill="none" xmlns="http://www.w3.org/2000/svg">
<path d="M22.9934 13.938C23.2203 7.21795 15.6757 6.16818 12.9841 7.50435C13.6855 15.2542 19.5553 15.4248 22.9934 13.938Z" fill="#FF9950"/>
<path d="M52.4734 29.6843C52.6052 30.0219 52.673 30.1964 52.6954 30.2533C52.6645 30.1746 52.575 29.9431 52.4734 29.6843Z" fill="#FF9950"/>
<path d="M52.4057 29.5079C52.4282 29.5666 52.4508 29.6255 52.4734 29.6843C52.4517 29.6265 52.431 29.5743 52.4046 29.5059C51.8792 28.1545 52.1419 28.8307 52.4037 29.5051C50.7271 25.1891 47.3774 21.631 42.997 20.0813C38.2419 18.4008 33.2853 19.3549 28.5789 20.6636C28.4896 18.0736 28.707 15.4762 29.0723 12.9118C29.2794 11.4646 30.2706 8.47068 27.8116 8.36826C25.7706 8.28295 25.7649 11.035 25.5662 12.4385C25.1822 15.1309 24.9554 17.8594 25.0288 20.5811C23.8981 20.3915 22.7817 19.9675 21.6556 19.7323C19.9761 19.3833 18.2655 19.1652 16.5493 19.1633C13.2421 19.1633 9.9781 20.0461 7.25649 21.9742C1.97137 25.7203 -0.0866747 32.2563 0.00278534 38.5362C0.100621 45.3358 2.38645 51.829 6.23218 57.375C7.92959 59.8237 9.88108 62.1718 12.2931 63.9385C14.6372 65.6549 17.2553 66.4592 20.0976 66.8688C21.3044 67.0443 22.5331 67.049 23.7361 66.8508C24.7867 66.6783 25.7705 66.2316 26.8126 66.0542C27.5997 65.9205 28.7097 66.5445 29.4712 66.7151C30.7695 67.0092 32.1053 67.0699 33.428 66.9181C38.2679 66.3624 42.1024 64.1631 45.2872 60.4759C52.2916 52.3669 56.466 39.9531 52.4057 29.5079Z" fill="#FF9950"/>
<path d="M70.6958 46.3392L70.6994 37.0038L70.6958 46.3392ZM70.6958 46.3392C70.7001 46.886 70.1455 47.3244 69.4549 47.3201L70.6958 46.3392ZM56.8694 37.0041L56.8739 50.7318C56.8325 50.759 56.7499 50.7944 56.628 50.7956C56.5092 50.7948 56.4275 50.7603 56.386 50.7331L56.3849 37.0062L56.3848 36.0074L55.3859 36.0063L50.5217 36.0011L49.521 36.0001L49.5206 37.0007L49.5173 45.8179C49.4755 45.8432 49.3963 45.8743 49.2817 45.8737L49.2817 45.8737L49.2725 45.8737C49.1573 45.8742 49.0775 45.8425 49.0357 45.8169L49.0366 37.0048L49.0367 36.0051L48.037 36.0047L43.7366 36.0029L42.7363 36.0025L42.7362 37.0028L42.735 45.8135C42.6928 45.8416 42.6087 45.8778 42.4857 45.8797C42.3693 45.878 42.2857 45.8422 42.2423 45.8124L42.2456 37.0049L42.246 36.0045L41.2456 36.0045L36.7542 36.0047L35.7546 36.0047L35.7542 37.0043L35.7507 45.8209C35.709 45.8455 35.6294 45.8763 35.5122 45.8762L35.5096 45.8762C35.393 45.8764 35.3123 45.8436 35.2704 45.8172L35.2704 37.001L35.2704 36.0005L34.2699 36.001L28.8387 36.0035L27.8394 36.0039L27.8392 37.0033L27.8368 50.7334C27.793 50.7603 27.7108 50.7928 27.5948 50.7929L27.591 50.7929C27.4748 50.7935 27.3955 50.7624 27.3541 50.7375L27.3494 37.0024L27.3491 36.0025L26.3491 36.0027L24.9992 36.0031C23.3427 36.0035 22 37.3466 22 39.0031L22 55.001C22 56.6578 23.3431 58.001 25 58.001L72.9955 58.001C74.6524 58.001 75.9955 56.6578 75.9955 55.001L75.9955 46.3403L75.9955 46.34L75.999 39.0051C75.9998 37.3477 74.6564 36.0037 72.9989 36.0037L70.6993 36.0038L69.6997 36.0038L69.6994 37.0034L69.6958 46.2654C69.6547 46.2901 69.576 46.3209 69.4611 46.3202L69.4611 46.3201L69.4498 46.3201C69.3361 46.3207 69.2572 46.2901 69.2153 46.265L69.2109 37.0012L69.2104 36.0015L68.2107 36.0017L63.718 36.0026L62.718 36.0028L62.7182 37.0027L62.7195 46.2621C62.679 46.2884 62.5994 46.3215 62.484 46.3209L62.4786 46.3209C62.3571 46.3209 62.2739 46.2868 62.2312 46.2599L62.2347 37.0031L62.2351 36.0024L61.2344 36.0027L57.8691 36.0038L56.8691 36.0041L56.8694 37.0041ZM50.5173 45.8929C50.5217 46.4378 49.9658 46.8772 49.2766 46.8737L50.5173 45.8929Z" fill="#FF9950" stroke="#FFFCFB" stroke-width="2"/>
</svg>
