<svg width="41" height="40" viewBox="0 0 41 40" fill="none" xmlns="http://www.w3.org/2000/svg">
<path fill-rule="evenodd" clip-rule="evenodd" d="M27.0624 35.4075L36.0009 26.6169L36.7458 25.8844L38.2354 24.4193C39.6279 23.05 40.3239 22.3653 40.5424 21.5602C40.6857 21.0329 40.6851 20.4776 40.5407 19.9498C40.3204 19.1442 39.6229 18.4582 38.2275 17.0858C36.8324 15.7136 36.1347 15.0274 35.3156 14.8108C34.7792 14.6688 34.2142 14.6681 33.6781 14.809C32.8595 15.0239 32.1633 15.7086 30.771 17.0778L28.5365 19.2754L19.598 28.0661L17.3635 30.2637C15.9712 31.633 15.275 32.3176 15.0565 33.1227C14.9133 33.65 14.9139 34.2055 15.0582 34.7332C15.2785 35.5387 15.9761 36.2249 17.3713 37.5971C18.7667 38.9694 19.4642 39.6556 20.2833 39.8722C20.8199 40.0141 21.3846 40.0147 21.9208 39.874C22.7394 39.6591 23.4356 38.9744 24.8278 37.6051L27.0624 35.4075ZM21.0721 11.934L12.1337 20.7247L9.89907 22.9223C8.50675 24.2916 7.81057 24.9762 6.99202 25.1911C6.45577 25.3319 5.89099 25.3313 5.35446 25.1893C4.53543 24.9727 3.83779 24.2866 2.44253 22.9143C1.04726 21.5419 0.349623 20.8559 0.12937 20.0503C-0.0149359 19.5226 -0.015533 18.9672 0.127639 18.4399C0.346159 17.6348 1.04232 16.9501 2.43464 15.5809L4.66925 13.3833L13.6156 4.60044L14.3525 3.86004L15.8422 2.39503C17.2345 1.02562 17.9307 0.341113 18.7493 0.126227C19.2855 -0.0146473 19.8502 -0.0140425 20.3868 0.127981C21.2059 0.344621 21.9034 1.03062 23.2988 2.40302C24.694 3.77522 25.3917 4.46142 25.6119 5.26698C25.7563 5.79456 25.7569 6.35015 25.6136 6.87742C25.3951 7.68251 24.6989 8.36722 23.3067 9.73643L21.0721 11.934Z" fill="#FFF6F0"/>
<path opacity="0.5" d="M3.91566 6.78103L6.89511 3.85082L7.15044 3.59997C8.3881 2.38582 9.05652 1.7788 9.8755 1.77968C10.7491 1.78061 11.4528 2.47281 12.8603 3.85721L13.6147 4.59921L4.66841 13.3818L3.92197 12.6476C2.51446 11.2634 1.8107 10.5712 1.80978 9.71218C1.80885 8.85291 2.51112 8.16222 3.91566 6.78103Z" fill="#FFF6F0"/>
<path opacity="0.5" d="M36.7535 33.2189L33.7742 36.149C32.3696 37.5303 31.6673 38.221 30.7938 38.2201C29.9201 38.2191 29.2163 37.527 27.8089 36.1426L27.0624 35.4085L36.0009 26.6179L36.7472 27.3521C38.1548 28.7364 38.8586 29.4286 38.8595 30.2877C38.8604 31.1469 38.1581 31.8376 36.7535 33.2189Z" fill="#FFF6F0"/>
<path opacity="0.5" d="M21.0717 11.9353L28.5361 19.2767L19.5976 28.0673L12.1332 20.7258L21.0717 11.9353Z" fill="#FFF6F0"/>
</svg>
