<svg width="75" height="74" viewBox="0 0 75 74" fill="none" xmlns="http://www.w3.org/2000/svg">
<path fill-rule="evenodd" clip-rule="evenodd" d="M13.9198 21.004V42.0082L15.1222 43.0134C16.2628 43.9673 18.9982 45.7755 19.3003 45.7755C19.378 45.7755 19.4414 35.4759 19.4414 22.8879V0H16.6807H13.9198V21.004ZM23.0928 2.0528C22.211 2.19574 21.3895 2.35077 21.2671 2.39751C20.9969 2.50056 20.9393 9.79638 21.2085 9.79638C21.2988 9.79638 22.0801 9.62242 22.9451 9.40994C29.0672 7.90545 36.1599 9.91288 40.9636 14.5096C51.9628 25.0346 47.8292 43.3704 33.3983 48.0681C14.7321 54.1446 -0.549197 32.2953 11.4331 16.6618L12.3168 15.5088V10.8716C12.3168 8.32084 12.2707 6.23408 12.2144 6.23408C11.9149 6.23408 9.18767 8.48682 7.8519 9.83764C-0.215881 17.9971 -2.3047 30.5829 2.69734 40.8961C9.30167 54.5131 25.7158 60.1307 39.3011 53.4238C50.1638 48.061 56.1551 36.2274 54.0699 24.2539C53.3599 20.1769 49.4268 11.1205 42.5964 6.46229C36.1451 2.06253 29.5264 1.00975 23.0928 2.0528ZM21.0444 31.1631V46.4743L21.9707 46.7492C22.8199 47.0014 23.9849 47.2179 25.7199 47.4464L26.3879 47.5344V31.6932V15.8522H23.7162H21.0444V31.1631ZM27.9909 34.276V47.5344L28.6589 47.4464C30.5455 47.1981 31.7326 46.9761 32.5773 46.7136L33.5125 46.423V33.7202V21.0177H30.7516H27.9909V34.276ZM35.1155 36.0853V45.8094L36.1396 45.2381C37.3792 44.5466 38.8866 43.4562 39.7911 42.5973L40.4591 41.9628V34.1618V26.361H37.7873H35.1155V36.0853ZM52.0985 43.5207C49.8407 47.4772 46.0755 51.2718 41.9442 53.7546L40.4903 54.6282L42.9254 57.0586L45.3603 59.4891L51.638 53.2094L57.9158 46.9298L55.5525 44.5715C52.7829 41.8076 53.0326 41.8835 52.0985 43.5207ZM52.5695 54.4178L48.207 58.7853L55.0644 65.6181C62.4087 72.9363 62.7767 73.2358 64.8345 73.5726C69.736 74.3748 73.5172 69.2889 71.3978 64.7447C70.909 63.6966 57.6445 50.0502 57.1144 50.0502C57.0141 50.0502 54.9688 52.0157 52.5695 54.4178ZM66.5857 65.2013C68.4057 65.8889 68.8779 67.8939 67.549 69.2907C65.5525 71.3896 62.2264 68.9437 63.6449 66.4199C64.2568 65.3311 65.5313 64.803 66.5857 65.2013ZM65.1405 66.8948C64.9866 67.0487 64.8607 67.3638 64.8607 67.5945C64.8607 68.5958 66.132 68.8993 66.6256 68.0158C67.1518 67.0742 65.9036 66.132 65.1405 66.8948Z" fill="#FF9950"/>
</svg>
