<svg width="204" height="54" viewBox="0 0 204 54" fill="none" xmlns="http://www.w3.org/2000/svg">
<path fill-rule="evenodd" clip-rule="evenodd" d="M179.726 48.7404C181.168 48.9566 182.67 49.0709 184.214 49.0709C195.142 49.0709 204 43.3441 204 36.2798C204 29.2155 195.142 23.4887 184.214 23.4887C183.824 23.4887 183.436 23.496 183.052 23.5104C180.308 18.5757 173.005 15.0466 164.427 15.0466C162.607 15.0466 160.845 15.2054 159.171 15.5027C155.884 13.93 151.817 13 147.413 13C142.408 13 137.838 14.2012 134.353 16.1819C130.869 14.2012 126.298 13 121.294 13C114.867 13 109.156 14.9809 105.542 18.0498C102.1 16.1758 97.6556 15.0466 92.8035 15.0466C83.9563 15.0466 76.4654 18.8005 73.9339 23.9789C71.2425 23.093 68.1958 22.5935 64.9686 22.5935C54.0412 22.5935 45.1828 28.3203 45.1828 35.3846C45.1828 42.4489 54.0412 48.1757 64.9686 48.1757C66.9633 48.1757 68.8891 47.9849 70.7047 47.6299C74.2387 51.1168 80.3365 53.4201 87.2665 53.4201C92.8603 53.4201 97.9119 51.9194 101.511 49.5068C105.109 51.9194 110.161 53.4201 115.755 53.4201C120.209 53.4201 124.319 52.4687 127.625 50.8631C130.932 52.4687 135.042 53.4201 139.496 53.4201C144.221 53.4201 148.559 52.3494 151.961 50.5629C155.364 52.3494 159.702 53.4201 164.427 53.4201C170.591 53.4201 176.097 51.5975 179.726 48.7404Z" fill="#FFF6F0"/>
<path d="M52.7154 39.2104V31.9377H54.0328V35.0166H57.4029V31.9377H58.7239V39.2104H57.4029V36.121H54.0328V39.2104H52.7154ZM62.5147 39.317C61.9679 39.317 61.4956 39.2033 61.0978 38.9761C60.7025 38.7464 60.3983 38.4221 60.1852 38.0031C59.9721 37.5817 59.8656 37.0857 59.8656 36.5151C59.8656 35.9541 59.9721 35.4616 60.1852 35.0379C60.4006 34.6117 60.7013 34.2803 61.0872 34.0435C61.4731 33.8044 61.9264 33.6849 62.4473 33.6849C62.7834 33.6849 63.1007 33.7393 63.399 33.8482C63.6996 33.9548 63.9648 34.1205 64.1944 34.3454C64.4264 34.5703 64.6087 34.8568 64.7413 35.2048C64.8739 35.5504 64.9402 35.9623 64.9402 36.4406V36.8347H60.4693V35.9683H63.7079C63.7056 35.722 63.6523 35.5031 63.5481 35.3113C63.444 35.1172 63.2984 34.9645 63.1113 34.8532C62.9267 34.7419 62.7112 34.6863 62.465 34.6863C62.2022 34.6863 61.9714 34.7502 61.7725 34.8781C61.5737 35.0035 61.4186 35.1693 61.3074 35.3752C61.1984 35.5788 61.1428 35.8025 61.1404 36.0464V36.8028C61.1404 37.12 61.1984 37.3923 61.3145 37.6195C61.4305 37.8444 61.5926 38.0173 61.801 38.138C62.0093 38.2564 62.2531 38.3156 62.5325 38.3156C62.7195 38.3156 62.8888 38.2895 63.0403 38.2374C63.1918 38.183 63.3232 38.1037 63.4345 37.9995C63.5458 37.8953 63.6298 37.7663 63.6866 37.6124L64.8869 37.7474C64.8111 38.0646 64.6667 38.3416 64.4537 38.5783C64.243 38.8127 63.9731 38.995 63.644 39.1252C63.3149 39.2531 62.9385 39.317 62.5147 39.317ZM67.5973 39.3205C67.2517 39.3205 66.9403 39.259 66.6634 39.1359C66.3887 39.0104 66.1709 38.8257 66.0099 38.5819C65.8513 38.3381 65.772 38.0374 65.772 37.6799C65.772 37.3721 65.8288 37.1176 65.9425 36.9164C66.0561 36.7152 66.2112 36.5542 66.4077 36.4335C66.6042 36.3127 66.8255 36.2216 67.0717 36.16C67.3203 36.0961 67.5772 36.0499 67.8423 36.0215C68.1619 35.9884 68.4212 35.9588 68.62 35.9328C68.8189 35.9043 68.9633 35.8617 69.0533 35.8049C69.1456 35.7457 69.1918 35.6546 69.1918 35.5315V35.5102C69.1918 35.2426 69.1125 35.0355 68.9538 34.8887C68.7952 34.7419 68.5668 34.6685 68.2685 34.6685C67.9536 34.6685 67.7038 34.7372 67.5192 34.8745C67.3369 35.0118 67.2138 35.174 67.1499 35.361L65.9496 35.1906C66.0443 34.8591 66.2005 34.5821 66.4183 34.3596C66.6361 34.1347 66.9025 33.9666 67.2173 33.8553C67.5322 33.7417 67.8802 33.6849 68.2614 33.6849C68.5241 33.6849 68.7857 33.7157 69.0462 33.7772C69.3066 33.8388 69.5445 33.9406 69.7599 34.0826C69.9754 34.2223 70.1482 34.4129 70.2784 34.6543C70.411 34.8958 70.4773 35.1977 70.4773 35.5599V39.2104H69.2415V38.4612H69.1989C69.1207 38.6127 69.0107 38.7547 68.8686 38.8873C68.7289 39.0175 68.5526 39.1229 68.3395 39.2033C68.1288 39.2815 67.8814 39.3205 67.5973 39.3205ZM67.9311 38.3759C68.1892 38.3759 68.4129 38.325 68.6023 38.2232C68.7917 38.1191 68.9373 37.9818 69.0391 37.8113C69.1432 37.6408 69.1953 37.455 69.1953 37.2538V36.611C69.1551 36.6442 69.0864 36.6749 68.9893 36.7033C68.8946 36.7318 68.7881 36.7566 68.6697 36.7779C68.5514 36.7992 68.4342 36.8182 68.3182 36.8347C68.2022 36.8513 68.1016 36.8655 68.0163 36.8774C67.8246 36.9034 67.6529 36.946 67.5014 37.0052C67.3499 37.0644 67.2304 37.1472 67.1428 37.2538C67.0552 37.3579 67.0114 37.4929 67.0114 37.6586C67.0114 37.8953 67.0978 38.0741 67.2706 38.1948C67.4434 38.3156 67.6636 38.3759 67.9311 38.3759ZM73.0554 31.9377V39.2104H71.7699V31.9377H73.0554ZM77.101 33.7559V34.7502H73.9654V33.7559H77.101ZM74.7395 32.4491H76.025V37.5698C76.025 37.7426 76.0511 37.8752 76.1032 37.9676C76.1576 38.0575 76.2286 38.1191 76.3162 38.1522C76.4038 38.1854 76.5009 38.2019 76.6074 38.2019C76.6879 38.2019 76.7613 38.196 76.8276 38.1842C76.8962 38.1723 76.9483 38.1617 76.9838 38.1522L77.2005 39.1572C77.1318 39.1809 77.0336 39.2069 76.9057 39.2353C76.7802 39.2637 76.6264 39.2803 76.4441 39.285C76.1221 39.2945 75.8321 39.246 75.574 39.1394C75.316 39.0305 75.1112 38.8624 74.9597 38.6352C74.8105 38.4079 74.7372 38.1238 74.7395 37.7829V32.4491ZM79.5788 36.0144V39.2104H78.2933V31.9377H79.5504V34.6828H79.6143C79.7422 34.375 79.9399 34.1323 80.2074 33.9548C80.4773 33.7748 80.8205 33.6849 81.2372 33.6849C81.616 33.6849 81.9463 33.7642 82.228 33.9228C82.5097 34.0814 82.7275 34.3134 82.8814 34.6188C83.0376 34.9242 83.1158 35.2971 83.1158 35.7374V39.2104H81.8303V35.9363C81.8303 35.5694 81.7356 35.2841 81.5462 35.0805C81.3591 34.8745 81.0964 34.7715 80.7578 34.7715C80.5305 34.7715 80.3269 34.8212 80.147 34.9207C79.9695 35.0177 79.8298 35.1586 79.728 35.3433C79.6286 35.5279 79.5788 35.7516 79.5788 36.0144ZM84.4261 39.2104V33.7559H85.7116V39.2104H84.4261ZM85.0724 32.9818C84.8688 32.9818 84.6937 32.9143 84.5469 32.7793C84.4001 32.642 84.3267 32.4775 84.3267 32.2857C84.3267 32.0916 84.4001 31.9271 84.5469 31.7921C84.6937 31.6548 84.8688 31.5862 85.0724 31.5862C85.2784 31.5862 85.4536 31.6548 85.598 31.7921C85.7448 31.9271 85.8182 32.0916 85.8182 32.2857C85.8182 32.4775 85.7448 32.642 85.598 32.7793C85.4536 32.9143 85.2784 32.9818 85.0724 32.9818ZM89.4483 39.317C88.9015 39.317 88.4292 39.2033 88.0314 38.9761C87.6361 38.7464 87.3319 38.4221 87.1188 38.0031C86.9057 37.5817 86.7992 37.0857 86.7992 36.5151C86.7992 35.9541 86.9057 35.4616 87.1188 35.0379C87.3342 34.6117 87.6349 34.2803 88.0208 34.0435C88.4067 33.8044 88.86 33.6849 89.3809 33.6849C89.717 33.6849 90.0343 33.7393 90.3326 33.8482C90.6332 33.9548 90.8984 34.1205 91.128 34.3454C91.36 34.5703 91.5423 34.8568 91.6749 35.2048C91.8075 35.5504 91.8738 35.9623 91.8738 36.4406V36.8347H87.4029V35.9683H90.6415C90.6391 35.722 90.5859 35.5031 90.4817 35.3113C90.3775 35.1172 90.2319 34.9645 90.0449 34.8532C89.8603 34.7419 89.6448 34.6863 89.3986 34.6863C89.1358 34.6863 88.905 34.7502 88.7061 34.8781C88.5073 35.0035 88.3522 35.1693 88.2409 35.3752C88.132 35.5788 88.0764 35.8025 88.074 36.0464V36.8028C88.074 37.12 88.132 37.3923 88.248 37.6195C88.3641 37.8444 88.5262 38.0173 88.7346 38.138C88.9429 38.2564 89.1867 38.3156 89.4661 38.3156C89.6531 38.3156 89.8224 38.2895 89.9739 38.2374C90.1254 38.183 90.2568 38.1037 90.3681 37.9995C90.4793 37.8953 90.5634 37.7663 90.6202 37.6124L91.8205 37.7474C91.7447 38.0646 91.6003 38.3416 91.3873 38.5783C91.1766 38.8127 90.9067 38.995 90.5776 39.1252C90.2485 39.2531 89.8721 39.317 89.4483 39.317ZM92.9613 39.2104V33.7559H94.2077V34.665H94.2646C94.364 34.3501 94.5344 34.1075 94.7759 33.937C95.0198 33.7642 95.2979 33.6778 95.6104 33.6778C95.6815 33.6778 95.7608 33.6813 95.8484 33.6884C95.9383 33.6932 96.0129 33.7015 96.0721 33.7133V34.8958C96.0176 34.8769 95.9312 34.8603 95.8129 34.8461C95.6969 34.8295 95.5844 34.8212 95.4755 34.8212C95.2411 34.8212 95.0304 34.8721 94.8434 34.9739C94.6587 35.0734 94.5131 35.2119 94.4066 35.3894C94.3001 35.567 94.2468 35.7718 94.2468 36.0038V39.2104H92.9613ZM101.786 39.317C101.241 39.317 100.774 39.1974 100.383 38.9583C99.9949 38.7192 99.6954 38.389 99.4847 37.9676C99.2764 37.5438 99.1722 37.0561 99.1722 36.5045C99.1722 35.9505 99.2788 35.4616 99.4918 35.0379C99.7049 34.6117 100.006 34.2803 100.394 34.0435C100.784 33.8044 101.246 33.6849 101.779 33.6849C102.221 33.6849 102.613 33.7666 102.954 33.9299C103.297 34.0909 103.571 34.3194 103.775 34.6153C103.978 34.9088 104.094 35.2521 104.123 35.6451H102.894C102.844 35.3823 102.726 35.1633 102.539 34.9881C102.354 34.8106 102.107 34.7218 101.797 34.7218C101.534 34.7218 101.303 34.7928 101.104 34.9349C100.905 35.0746 100.75 35.2758 100.639 35.5386C100.53 35.8014 100.475 36.1162 100.475 36.4832C100.475 36.8549 100.53 37.1745 100.639 37.442C100.748 37.7071 100.9 37.9119 101.097 38.0563C101.296 38.1984 101.529 38.2694 101.797 38.2694C101.986 38.2694 102.155 38.2339 102.304 38.1629C102.456 38.0895 102.583 37.9841 102.684 37.8468C102.786 37.7095 102.856 37.5426 102.894 37.3461H104.123C104.092 37.732 103.978 38.0741 103.782 38.3724C103.585 38.6683 103.318 38.9003 102.979 39.0684C102.641 39.2341 102.243 39.317 101.786 39.317ZM106.464 36.0144V39.2104H105.178V31.9377H106.435V34.6828H106.499C106.627 34.375 106.825 34.1323 107.092 33.9548C107.362 33.7748 107.705 33.6849 108.122 33.6849C108.501 33.6849 108.831 33.7642 109.113 33.9228C109.394 34.0814 109.612 34.3134 109.766 34.6188C109.922 34.9242 110.001 35.2971 110.001 35.7374V39.2104H108.715V35.9363C108.715 35.5694 108.62 35.2841 108.431 35.0805C108.244 34.8745 107.981 34.7715 107.643 34.7715C107.415 34.7715 107.212 34.8212 107.032 34.9207C106.854 35.0177 106.715 35.1586 106.613 35.3433C106.513 35.5279 106.464 35.7516 106.464 36.0144ZM113.69 39.317C113.157 39.317 112.696 39.1998 112.305 38.9654C111.915 38.731 111.612 38.4032 111.396 37.9818C111.183 37.5604 111.077 37.0679 111.077 36.5045C111.077 35.941 111.183 35.4474 111.396 35.0237C111.612 34.5999 111.915 34.2708 112.305 34.0364C112.696 33.8021 113.157 33.6849 113.69 33.6849C114.223 33.6849 114.684 33.8021 115.075 34.0364C115.466 34.2708 115.768 34.5999 115.981 35.0237C116.196 35.4474 116.304 35.941 116.304 36.5045C116.304 37.0679 116.196 37.5604 115.981 37.9818C115.768 38.4032 115.466 38.731 115.075 38.9654C114.684 39.1998 114.223 39.317 113.69 39.317ZM113.697 38.2872C113.986 38.2872 114.228 38.2078 114.422 38.0492C114.616 37.8882 114.76 37.6728 114.855 37.4029C114.952 37.133 115.001 36.8324 115.001 36.5009C115.001 36.1671 114.952 35.8653 114.855 35.5954C114.76 35.3231 114.616 35.1065 114.422 34.9455C114.228 34.7845 113.986 34.7041 113.697 34.7041C113.401 34.7041 113.155 34.7845 112.959 34.9455C112.765 35.1065 112.619 35.3231 112.522 35.5954C112.427 35.8653 112.38 36.1671 112.38 36.5009C112.38 36.8324 112.427 37.133 112.522 37.4029C112.619 37.6728 112.765 37.8882 112.959 38.0492C113.155 38.2078 113.401 38.2872 113.697 38.2872ZM117.395 39.2104V33.7559H118.68V39.2104H117.395ZM118.041 32.9818C117.838 32.9818 117.662 32.9143 117.516 32.7793C117.369 32.642 117.295 32.4775 117.295 32.2857C117.295 32.0916 117.369 31.9271 117.516 31.7921C117.662 31.6548 117.838 31.5862 118.041 31.5862C118.247 31.5862 118.422 31.6548 118.567 31.7921C118.714 31.9271 118.787 32.0916 118.787 32.2857C118.787 32.4775 118.714 32.642 118.567 32.7793C118.422 32.9143 118.247 32.9818 118.041 32.9818ZM122.382 39.317C121.837 39.317 121.369 39.1974 120.979 38.9583C120.591 38.7192 120.291 38.389 120.08 37.9676C119.872 37.5438 119.768 37.0561 119.768 36.5045C119.768 35.9505 119.874 35.4616 120.088 35.0379C120.301 34.6117 120.601 34.2803 120.99 34.0435C121.38 33.8044 121.842 33.6849 122.374 33.6849C122.817 33.6849 123.209 33.7666 123.55 33.9299C123.893 34.0909 124.167 34.3194 124.37 34.6153C124.574 34.9088 124.69 35.2521 124.718 35.6451H123.49C123.44 35.3823 123.321 35.1633 123.134 34.9881C122.95 34.8106 122.702 34.7218 122.392 34.7218C122.129 34.7218 121.899 34.7928 121.7 34.9349C121.501 35.0746 121.346 35.2758 121.235 35.5386C121.126 35.8014 121.071 36.1162 121.071 36.4832C121.071 36.8549 121.126 37.1745 121.235 37.442C121.343 37.7071 121.496 37.9119 121.693 38.0563C121.892 38.1984 122.125 38.2694 122.392 38.2694C122.582 38.2694 122.751 38.2339 122.9 38.1629C123.052 38.0895 123.178 37.9841 123.28 37.8468C123.382 37.7095 123.452 37.5426 123.49 37.3461H124.718C124.687 37.732 124.574 38.0741 124.377 38.3724C124.181 38.6683 123.913 38.9003 123.575 39.0684C123.236 39.2341 122.838 39.317 122.382 39.317ZM128.189 39.317C127.642 39.317 127.169 39.2033 126.772 38.9761C126.376 38.7464 126.072 38.4221 125.859 38.0031C125.646 37.5817 125.539 37.0857 125.539 36.5151C125.539 35.9541 125.646 35.4616 125.859 35.0379C126.074 34.6117 126.375 34.2803 126.761 34.0435C127.147 33.8044 127.6 33.6849 128.121 33.6849C128.457 33.6849 128.775 33.7393 129.073 33.8482C129.373 33.9548 129.639 34.1205 129.868 34.3454C130.1 34.5703 130.283 34.8568 130.415 35.2048C130.548 35.5504 130.614 35.9623 130.614 36.4406V36.8347H126.143V35.9683H129.382C129.379 35.722 129.326 35.5031 129.222 35.3113C129.118 35.1172 128.972 34.9645 128.785 34.8532C128.6 34.7419 128.385 34.6863 128.139 34.6863C127.876 34.6863 127.645 34.7502 127.446 34.8781C127.248 35.0035 127.092 35.1693 126.981 35.3752C126.872 35.5788 126.817 35.8025 126.814 36.0464V36.8028C126.814 37.12 126.872 37.3923 126.988 37.6195C127.104 37.8444 127.266 38.0173 127.475 38.138C127.683 38.2564 127.927 38.3156 128.206 38.3156C128.393 38.3156 128.563 38.2895 128.714 38.2374C128.866 38.183 128.997 38.1037 129.108 37.9995C129.22 37.8953 129.304 37.7663 129.36 37.6124L130.561 37.7474C130.485 38.0646 130.341 38.3416 130.127 38.5783C129.917 38.8127 129.647 38.995 129.318 39.1252C128.989 39.2531 128.612 39.317 128.189 39.317ZM136.013 35.1977L134.841 35.3255C134.808 35.2071 134.75 35.0959 134.667 34.9917C134.586 34.8875 134.477 34.8035 134.34 34.7396C134.203 34.6756 134.035 34.6437 133.836 34.6437C133.568 34.6437 133.343 34.7017 133.161 34.8177C132.981 34.9337 132.892 35.084 132.895 35.2687C132.892 35.4273 132.95 35.5563 133.069 35.6558C133.189 35.7552 133.388 35.8369 133.665 35.9008L134.596 36.0997C135.112 36.2109 135.495 36.3873 135.746 36.6288C136 36.8703 136.127 37.1863 136.13 37.5769C136.127 37.9202 136.027 38.2232 135.828 38.486C135.631 38.7464 135.358 38.95 135.008 39.0968C134.657 39.2436 134.255 39.317 133.8 39.317C133.133 39.317 132.595 39.1773 132.188 38.8979C131.781 38.6162 131.538 38.2244 131.46 37.7225L132.714 37.6018C132.77 37.848 132.891 38.0338 133.076 38.1593C133.26 38.2848 133.501 38.3475 133.797 38.3475C134.102 38.3475 134.347 38.2848 134.532 38.1593C134.719 38.0338 134.812 37.8788 134.812 37.6941C134.812 37.5379 134.752 37.4088 134.631 37.307C134.513 37.2052 134.328 37.1271 134.077 37.0727L133.147 36.8774C132.624 36.7685 132.237 36.585 131.986 36.3269C131.735 36.0665 131.61 35.7374 131.613 35.3397C131.61 35.0035 131.702 34.7123 131.886 34.4661C132.073 34.2176 132.332 34.0258 132.664 33.8908C132.998 33.7535 133.382 33.6849 133.818 33.6849C134.457 33.6849 134.96 33.821 135.327 34.0933C135.697 34.3655 135.925 34.7336 136.013 35.1977ZM137.314 37.1828C137.302 36.7519 137.359 36.3932 137.485 36.1068C137.612 35.8203 137.79 35.606 138.017 35.464C138.247 35.3196 138.51 35.2474 138.806 35.2474C139.035 35.2474 139.251 35.2959 139.452 35.393C139.653 35.4877 139.884 35.6498 140.144 35.8795C140.294 36.0073 140.417 36.1032 140.514 36.1671C140.611 36.231 140.722 36.263 140.847 36.263C141.027 36.263 141.173 36.1944 141.284 36.057C141.398 35.9174 141.451 35.7067 141.444 35.4249H142.474C142.486 35.8534 142.427 36.2109 142.296 36.4974C142.169 36.7838 141.99 36.9993 141.76 37.1437C141.53 37.2857 141.271 37.3568 140.982 37.3568C140.746 37.3568 140.526 37.307 140.322 37.2076C140.118 37.1082 139.89 36.9484 139.637 36.7282C139.48 36.5909 139.355 36.4926 139.26 36.4335C139.168 36.3743 139.06 36.3447 138.937 36.3447C138.764 36.3447 138.62 36.4098 138.504 36.54C138.39 36.6678 138.336 36.8821 138.34 37.1828H137.314ZM143.975 39.2104V31.9377H145.261V34.6579H145.314C145.38 34.5253 145.474 34.3845 145.594 34.2353C145.715 34.0838 145.879 33.9548 146.085 33.8482C146.29 33.7393 146.553 33.6849 146.873 33.6849C147.294 33.6849 147.674 33.7926 148.013 34.008C148.354 34.2211 148.624 34.5372 148.822 34.9562C149.024 35.3729 149.124 35.8842 149.124 36.4903C149.124 37.0892 149.026 37.5982 148.83 38.0173C148.633 38.4363 148.366 38.7559 148.027 38.9761C147.688 39.1962 147.305 39.3063 146.876 39.3063C146.564 39.3063 146.305 39.2542 146.099 39.1501C145.893 39.0459 145.727 38.9204 145.602 38.7737C145.478 38.6245 145.383 38.4836 145.314 38.3511H145.239V39.2104H143.975ZM145.236 36.4832C145.236 36.8359 145.286 37.1449 145.385 37.41C145.487 37.6752 145.632 37.8823 145.822 38.0315C146.013 38.1783 146.246 38.2516 146.518 38.2516C146.802 38.2516 147.04 38.1759 147.232 38.0244C147.423 37.8705 147.568 37.661 147.665 37.3958C147.764 37.1283 147.814 36.8241 147.814 36.4832C147.814 36.1446 147.765 35.844 147.668 35.5812C147.571 35.3184 147.427 35.1124 147.235 34.9633C147.043 34.8141 146.804 34.7396 146.518 34.7396C146.243 34.7396 146.01 34.8118 145.818 34.9562C145.626 35.1006 145.481 35.303 145.381 35.5634C145.284 35.8238 145.236 36.1304 145.236 36.4832ZM152.632 39.317C152.085 39.317 151.613 39.2033 151.215 38.9761C150.82 38.7464 150.515 38.4221 150.302 38.0031C150.089 37.5817 149.983 37.0857 149.983 36.5151C149.983 35.9541 150.089 35.4616 150.302 35.0379C150.518 34.6117 150.818 34.2803 151.204 34.0435C151.59 33.8044 152.044 33.6849 152.564 33.6849C152.901 33.6849 153.218 33.7393 153.516 33.8482C153.817 33.9548 154.082 34.1205 154.312 34.3454C154.544 34.5703 154.726 34.8568 154.858 35.2048C154.991 35.5504 155.057 35.9623 155.057 36.4406V36.8347H150.586V35.9683H153.825C153.823 35.722 153.769 35.5031 153.665 35.3113C153.561 35.1172 153.416 34.9645 153.229 34.8532C153.044 34.7419 152.828 34.6863 152.582 34.6863C152.319 34.6863 152.089 34.7502 151.89 34.8781C151.691 35.0035 151.536 35.1693 151.425 35.3752C151.316 35.5788 151.26 35.8025 151.258 36.0464V36.8028C151.258 37.12 151.316 37.3923 151.432 37.6195C151.548 37.8444 151.71 38.0173 151.918 38.138C152.126 38.2564 152.37 38.3156 152.65 38.3156C152.837 38.3156 153.006 38.2895 153.157 38.2374C153.309 38.183 153.44 38.1037 153.552 37.9995C153.663 37.8953 153.747 37.7663 153.804 37.6124L155.004 37.7474C154.928 38.0646 154.784 38.3416 154.571 38.5783C154.36 38.8127 154.09 38.995 153.761 39.1252C153.432 39.2531 153.056 39.317 152.632 39.317ZM158.869 33.7559V34.7502H155.733V33.7559H158.869ZM156.507 32.4491H157.793V37.5698C157.793 37.7426 157.819 37.8752 157.871 37.9676C157.925 38.0575 157.996 38.1191 158.084 38.1522C158.171 38.1854 158.268 38.2019 158.375 38.2019C158.455 38.2019 158.529 38.196 158.595 38.1842C158.664 38.1723 158.716 38.1617 158.751 38.1522L158.968 39.1572C158.899 39.1809 158.801 39.2069 158.673 39.2353C158.548 39.2637 158.394 39.2803 158.212 39.285C157.89 39.2945 157.6 39.246 157.342 39.1394C157.084 39.0305 156.879 38.8624 156.727 38.6352C156.578 38.4079 156.505 38.1238 156.507 37.7829V32.4491ZM162.667 33.7559V34.7502H159.532V33.7559H162.667ZM160.306 32.4491H161.591V37.5698C161.591 37.7426 161.617 37.8752 161.67 37.9676C161.724 38.0575 161.795 38.1191 161.883 38.1522C161.97 38.1854 162.067 38.2019 162.174 38.2019C162.254 38.2019 162.328 38.196 162.394 38.1842C162.463 38.1723 162.515 38.1617 162.55 38.1522L162.767 39.1572C162.698 39.1809 162.6 39.2069 162.472 39.2353C162.347 39.2637 162.193 39.2803 162.01 39.285C161.689 39.2945 161.398 39.246 161.14 39.1394C160.882 39.0305 160.678 38.8624 160.526 38.6352C160.377 38.4079 160.304 38.1238 160.306 37.7829V32.4491ZM166.099 39.317C165.552 39.317 165.08 39.2033 164.682 38.9761C164.286 38.7464 163.982 38.4221 163.769 38.0031C163.556 37.5817 163.45 37.0857 163.45 36.5151C163.45 35.9541 163.556 35.4616 163.769 35.0379C163.985 34.6117 164.285 34.2803 164.671 34.0435C165.057 33.8044 165.51 33.6849 166.031 33.6849C166.367 33.6849 166.685 33.7393 166.983 33.8482C167.284 33.9548 167.549 34.1205 167.778 34.3454C168.01 34.5703 168.193 34.8568 168.325 35.2048C168.458 35.5504 168.524 35.9623 168.524 36.4406V36.8347H164.053V35.9683H167.292C167.29 35.722 167.236 35.5031 167.132 35.3113C167.028 35.1172 166.882 34.9645 166.695 34.8532C166.511 34.7419 166.295 34.6863 166.049 34.6863C165.786 34.6863 165.555 34.7502 165.357 34.8781C165.158 35.0035 165.003 35.1693 164.891 35.3752C164.782 35.5788 164.727 35.8025 164.724 36.0464V36.8028C164.724 37.12 164.782 37.3923 164.898 37.6195C165.014 37.8444 165.177 38.0173 165.385 38.138C165.593 38.2564 165.837 38.3156 166.116 38.3156C166.304 38.3156 166.473 38.2895 166.624 38.2374C166.776 38.183 166.907 38.1037 167.018 37.9995C167.13 37.8953 167.214 37.7663 167.271 37.6124L168.471 37.7474C168.395 38.0646 168.251 38.3416 168.038 38.5783C167.827 38.8127 167.557 38.995 167.228 39.1252C166.899 39.2531 166.522 39.317 166.099 39.317ZM169.612 39.2104V33.7559H170.858V34.665H170.915C171.014 34.3501 171.185 34.1075 171.426 33.937C171.67 33.7642 171.948 33.6778 172.261 33.6778C172.332 33.6778 172.411 33.6813 172.499 33.6884C172.589 33.6932 172.663 33.7015 172.722 33.7133V34.8958C172.668 34.8769 172.582 34.8603 172.463 34.8461C172.347 34.8295 172.235 34.8212 172.126 34.8212C171.892 34.8212 171.681 34.8721 171.494 34.9739C171.309 35.0734 171.164 35.2119 171.057 35.3894C170.95 35.567 170.897 35.7718 170.897 36.0038V39.2104H169.612ZM176.856 41.2559C176.681 41.2559 176.519 41.2417 176.369 41.2133C176.223 41.1872 176.106 41.1565 176.018 41.121L176.316 40.1195C176.503 40.174 176.67 40.2 176.817 40.1977C176.964 40.1953 177.093 40.1491 177.204 40.0592C177.318 39.9716 177.414 39.8248 177.492 39.6188L177.602 39.3241L175.624 33.7559H176.987L178.244 37.8752H178.301L179.562 33.7559H180.929L178.745 39.871C178.643 40.1598 178.508 40.4072 178.34 40.6131C178.172 40.8215 177.966 40.9801 177.722 41.089C177.481 41.2003 177.192 41.2559 176.856 41.2559ZM184.012 39.317C183.48 39.317 183.018 39.1998 182.627 38.9654C182.237 38.731 181.934 38.4032 181.718 37.9818C181.505 37.5604 181.399 37.0679 181.399 36.5045C181.399 35.941 181.505 35.4474 181.718 35.0237C181.934 34.5999 182.237 34.2708 182.627 34.0364C183.018 33.8021 183.48 33.6849 184.012 33.6849C184.545 33.6849 185.007 33.8021 185.397 34.0364C185.788 34.2708 186.09 34.5999 186.303 35.0237C186.518 35.4474 186.626 35.941 186.626 36.5045C186.626 37.0679 186.518 37.5604 186.303 37.9818C186.09 38.4032 185.788 38.731 185.397 38.9654C185.007 39.1998 184.545 39.317 184.012 39.317ZM184.02 38.2872C184.308 38.2872 184.55 38.2078 184.744 38.0492C184.938 37.8882 185.083 37.6728 185.177 37.4029C185.274 37.133 185.323 36.8324 185.323 36.5009C185.323 36.1671 185.274 35.8653 185.177 35.5954C185.083 35.3231 184.938 35.1065 184.744 34.9455C184.55 34.7845 184.308 34.7041 184.02 34.7041C183.724 34.7041 183.477 34.7845 183.281 34.9455C183.087 35.1065 182.941 35.3231 182.844 35.5954C182.749 35.8653 182.702 36.1671 182.702 36.5009C182.702 36.8324 182.749 37.133 182.844 37.4029C182.941 37.6728 183.087 37.8882 183.281 38.0492C183.477 38.2078 183.724 38.2872 184.02 38.2872ZM191.194 36.9164V33.7559H192.479V39.2104H191.233V38.241H191.176C191.053 38.5464 190.85 38.7961 190.569 38.9903C190.289 39.1844 189.945 39.2815 189.535 39.2815C189.178 39.2815 188.862 39.2022 188.587 39.0435C188.315 38.8826 188.102 38.6494 187.948 38.344C187.794 38.0362 187.717 37.6645 187.717 37.2289V33.7559H189.003V37.0301C189.003 37.3757 189.097 37.6503 189.287 37.8539C189.476 38.0575 189.725 38.1593 190.032 38.1593C190.222 38.1593 190.405 38.1131 190.583 38.0208C190.76 37.9285 190.906 37.7912 191.02 37.6089C191.136 37.4242 191.194 37.1934 191.194 36.9164ZM194.593 39.2886C194.378 39.2886 194.193 39.2128 194.039 39.0613C193.885 38.9098 193.809 38.7251 193.812 38.5073C193.809 38.2943 193.885 38.112 194.039 37.9604C194.193 37.8089 194.378 37.7332 194.593 37.7332C194.801 37.7332 194.982 37.8089 195.136 37.9604C195.293 38.112 195.372 38.2943 195.374 38.5073C195.372 38.6517 195.334 38.7831 195.261 38.9015C195.19 39.0199 195.095 39.1146 194.977 39.1856C194.861 39.2542 194.733 39.2886 194.593 39.2886Z" fill="#FF9950"/>
<path fill-rule="evenodd" clip-rule="evenodd" d="M21.6438 16.5414C21.5321 16.5488 21.4193 16.5526 21.3055 16.5526C18.9276 16.5526 17 14.9021 17 12.8661C17 10.8301 18.9276 9.1796 21.3055 9.1796C22.016 9.1796 22.6863 9.32695 23.277 9.5879C24.0543 8.62835 25.3501 8 26.8172 8C28.9028 8 30.642 9.26966 31.0381 10.9555C31.1227 10.9512 31.2079 10.9491 31.2938 10.9491C33.6717 10.9491 35.5993 12.5996 35.5993 14.6356C35.5993 16.6716 33.6717 18.3221 31.2938 18.3221C30.5091 18.3221 29.7734 18.1423 29.1398 17.8283C28.3507 18.669 27.1398 19.2071 25.7821 19.2071C23.8178 19.2071 22.1608 18.0808 21.6438 16.5414Z" fill="#FFF6F0"/>
<path d="M-1.7643e-05 1.86866C-1.7643e-05 2.90069 1.63574 3.73732 3.65356 3.73732C5.67137 3.73732 7.30713 2.90069 7.30713 1.86866C7.30713 0.836627 5.67137 0 3.65356 0C1.63574 0 -1.7643e-05 0.836627 -1.7643e-05 1.86866Z" fill="#FFF6F0"/>
</svg>
