<svg width="14" height="14" viewBox="0 0 14 14" fill="none" xmlns="http://www.w3.org/2000/svg">
<path d="M6.81248 4.00588C8.65818 4.00588 10.1816 5.52931 10.1816 7.37501C10.1816 9.25001 8.65818 10.7441 6.81248 10.7441C4.93749 10.7441 3.44335 9.25001 3.44335 7.37501C3.44335 5.52931 4.93749 4.00588 6.81248 4.00588ZM6.81248 9.57227C8.01365 9.57227 8.98045 8.60548 8.98045 7.37501C8.98045 6.17384 8.01365 5.20705 6.81248 5.20705C5.58202 5.20705 4.61522 6.17384 4.61522 7.37501C4.61522 8.60548 5.61132 9.57227 6.81248 9.57227ZM11.0898 3.88869C11.0898 4.32815 10.7383 4.67971 10.2988 4.67971C9.85935 4.67971 9.50779 4.32815 9.50779 3.88869C9.50779 3.44924 9.85935 3.09768 10.2988 3.09768C10.7383 3.09768 11.0898 3.44924 11.0898 3.88869ZM13.3164 4.67971C13.375 5.76369 13.375 9.01563 13.3164 10.0996C13.2578 11.1543 13.0234 12.0625 12.2617 12.8535C11.5 13.6152 10.5625 13.8496 9.50779 13.9082C8.42381 13.9668 5.17186 13.9668 4.08788 13.9082C3.0332 13.8496 2.125 13.6152 1.33398 12.8535C0.572265 12.0625 0.33789 11.1543 0.279297 10.0996C0.220703 9.01563 0.220703 5.76369 0.279297 4.67971C0.33789 3.62502 0.572265 2.68752 1.33398 1.92581C2.125 1.16409 3.0332 0.929716 4.08788 0.871122C5.17186 0.812529 8.42381 0.812529 9.50779 0.871122C10.5625 0.929716 11.5 1.16409 12.2617 1.92581C13.0234 2.68752 13.2578 3.62502 13.3164 4.67971ZM11.9101 11.2422C12.2617 10.3926 12.1738 8.34181 12.1738 7.37501C12.1738 6.43752 12.2617 4.38674 11.9101 3.50783C11.6758 2.9512 11.2363 2.48245 10.6797 2.27737C9.80076 1.92581 7.74998 2.0137 6.81248 2.0137C5.84569 2.0137 3.79491 1.92581 2.94531 2.27737C2.35937 2.51174 1.91992 2.9512 1.68554 3.50783C1.33398 4.38674 1.42187 6.43752 1.42187 7.37501C1.42187 8.34181 1.33398 10.3926 1.68554 11.2422C1.91992 11.8281 2.35937 12.2676 2.94531 12.502C3.79491 12.8535 5.84569 12.7656 6.81248 12.7656C7.74998 12.7656 9.80076 12.8535 10.6797 12.502C11.2363 12.2676 11.7051 11.8281 11.9101 11.2422Z" fill="white"/>
</svg>
