<svg width="78" height="69" viewBox="0 0 78 69" fill="none" xmlns="http://www.w3.org/2000/svg">
<path d="M22.9934 6.93797C23.2203 0.217946 15.6757 -0.831822 12.9841 0.504354C13.6855 8.25422 19.5553 8.42484 22.9934 6.93797Z" fill="#FF9950"/>
<path d="M52.4734 22.6843C52.6052 23.0219 52.673 23.1964 52.6954 23.2533C52.6645 23.1746 52.575 22.9431 52.4734 22.6843Z" fill="#FF9950"/>
<path d="M52.4057 22.5079C52.4282 22.5666 52.4508 22.6255 52.4734 22.6843C52.4517 22.6265 52.431 22.5743 52.4046 22.5059C51.8792 21.1545 52.1419 21.8307 52.4037 22.5051C50.7271 18.1891 47.3774 14.631 42.997 13.0813C38.2419 11.4008 33.2853 12.3549 28.5789 13.6636C28.4896 11.0736 28.707 8.47617 29.0723 5.91175C29.2794 4.4646 30.2706 1.47068 27.8116 1.36826C25.7706 1.28295 25.7649 4.03499 25.5662 5.43855C25.1822 8.13094 24.9554 10.8594 25.0288 13.5811C23.8981 13.3915 22.7817 12.9675 21.6556 12.7323C19.9761 12.3833 18.2655 12.1652 16.5493 12.1633C13.2421 12.1633 9.9781 13.0461 7.25649 14.9742C1.97137 18.7203 -0.0866747 25.2563 0.00278534 31.5362C0.100621 38.3358 2.38645 44.829 6.23218 50.375C7.92959 52.8237 9.88108 55.1718 12.2931 56.9385C14.6372 58.6549 17.2553 59.4592 20.0976 59.8688C21.3044 60.0443 22.5331 60.049 23.7361 59.8508C24.7867 59.6783 25.7705 59.2316 26.8126 59.0542C27.5997 58.9205 28.7097 59.5445 29.4712 59.7151C30.7695 60.0092 32.1053 60.0699 33.428 59.9181C38.2679 59.3624 42.1024 57.1631 45.2872 53.4759C52.2916 45.3669 56.466 32.9531 52.4057 22.5079Z" fill="#FF9950"/>
<path d="M64.0904 33.593L64.0904 33.593L64.0992 32.5483L64.0992 32.5483L64.1165 30.459L64.1165 30.459C64.1249 29.4641 64.1295 28.785 64.0864 28.262C64.0443 27.7523 63.9624 27.4921 63.8581 27.3102L63.858 27.31C63.6752 26.9907 63.4106 26.7267 63.0904 26.5441L63.0903 26.544C62.908 26.44 62.6473 26.3583 62.1365 26.3163C61.6125 26.2733 60.9318 26.278 59.9348 26.2862C58.938 26.2945 58.2571 26.3011 57.7319 26.353C57.2208 26.4034 56.9539 26.4896 56.7628 26.6007L56.7626 26.6008C56.4324 26.7928 56.1569 27.0677 55.9645 27.3972L55.9644 27.3974C55.853 27.5881 55.7667 27.8544 55.7161 28.3644C55.6642 28.8885 55.6576 29.5679 55.6493 30.5625L55.6231 33.6966L55.5186 46.2329L55.4925 49.3669C55.4842 50.3618 55.4795 51.041 55.5227 51.5639C55.5648 52.0737 55.6466 52.3339 55.7508 52.5157L55.7508 52.5157C55.9339 52.8352 56.1986 53.0993 56.5187 53.2819L56.5187 53.2819C56.7009 53.3859 56.9617 53.4676 57.4725 53.5096C57.9966 53.5527 58.6772 53.548 59.6742 53.5397C60.6711 53.5314 61.3519 53.5248 61.8772 53.473C62.3882 53.4225 62.6551 53.3364 62.8462 53.2253L64.0904 33.593ZM64.0904 33.593L63.9858 46.1293L64.9868 46.1377M64.0904 33.593L64.9868 46.1377M64.9868 46.1377L63.9858 46.1294L63.9597 49.2634L63.9597 49.2634C63.9514 50.2581 63.9448 50.9375 63.8929 51.4616C63.8423 51.9715 63.756 52.2379 63.6446 52.4286L63.6446 52.4286C63.4521 52.7581 63.1767 53.033 62.8462 53.2252L64.9868 46.1377ZM42.706 52.6025L42.706 52.6025C42.8174 52.4118 42.9037 52.1454 42.9543 51.6355C43.0062 51.1114 43.0128 50.432 43.0211 49.4373L43.0473 46.3033L43.1518 33.7669L43.1779 30.6329C43.1862 29.6381 43.1909 28.9589 43.1477 28.4359C43.1057 27.9262 43.0238 27.666 42.9196 27.4842L42.9195 27.4839C42.7366 27.1646 42.4719 26.9005 42.1519 26.7181L42.1517 26.7179C41.9695 26.614 41.7087 26.5323 41.1979 26.4903C40.6738 26.4472 39.9931 26.4519 38.9962 26.4602C37.9993 26.4684 37.3185 26.4751 36.7932 26.5269C36.2823 26.5773 36.0154 26.6635 35.8243 26.7747L35.8241 26.7747C35.4937 26.9669 35.2184 27.2417 35.026 27.5711L35.0259 27.5713C34.9145 27.762 34.8281 28.0284 34.7775 28.5383C34.7256 29.0624 34.7189 29.7418 34.7107 30.7365L34.7107 30.7365L34.6932 32.8152L34.6932 32.8259L34.6957 33.8598L34.6957 33.8713L34.6957 33.8713L34.5801 46.4069L34.5801 46.4077L34.5539 49.5409L34.5539 49.5409C34.5456 50.5357 34.5409 51.2149 34.5841 51.7379C34.6261 52.2476 34.708 52.5078 34.8122 52.6897L34.8123 52.6898C34.9952 53.0091 35.2598 53.2731 35.5801 53.4559L35.0837 54.3222L35.5801 53.4559C35.7623 53.5599 36.023 53.6415 36.5339 53.6835C37.058 53.7266 37.7386 53.7219 38.7356 53.7136L42.706 52.6025ZM42.706 52.6025C42.5134 52.9321 42.2379 53.207 41.9076 53.3991L41.9076 53.3992M42.706 52.6025L41.9076 53.3992M41.9076 53.3992C41.7165 53.5103 41.4496 53.5965 40.9385 53.6469M41.9076 53.3992L40.9385 53.6469M40.9385 53.6469C40.4133 53.6987 39.7325 53.7053 38.7357 53.7136L40.9385 53.6469Z" fill="#FF9950" stroke="#FFFCFB" stroke-width="2"/>
<path d="M29.3786 42.2714L29.3786 42.2713L29.4134 38.0931L29.4134 38.0926L29.4166 37.7359C29.4166 37.7358 29.4166 37.7356 29.4166 37.7355C29.4251 36.8508 29.4416 36.2732 29.5119 35.8493C29.5715 35.4902 29.6558 35.3371 29.7388 35.2443C29.7514 35.2413 29.8509 35.1886 30.1184 35.1285C30.4409 35.056 30.8698 35.0012 31.3756 34.9621C32.3402 34.8876 33.4625 34.8785 34.4315 34.8706C34.4768 34.8703 34.5218 34.8699 34.5664 34.8695L34.6058 34.8692L34.5085 45.4074L34.4452 45.4079L34.4451 45.4079C33.453 45.4162 32.2695 45.4216 31.2635 45.3529C30.7588 45.3184 30.3312 45.2672 30.0106 45.1978C29.7598 45.1435 29.6598 45.095 29.6414 45.0888C29.5645 44.9996 29.4799 44.8382 29.4283 44.4298C29.3668 43.9438 29.3701 43.2847 29.3786 42.2714Z" fill="#FF9950" stroke="#FFFCFB" stroke-width="2"/>
<path d="M69.2908 37.7291L69.2908 37.7291L69.2561 41.9077C69.2561 41.9077 69.2561 41.9077 69.2561 41.9078C69.2476 42.9208 69.24 43.5804 69.1703 44.0683C69.1113 44.4812 69.0221 44.6514 68.935 44.7509C68.9261 44.7552 68.9139 44.7607 68.8981 44.7671C68.823 44.7977 68.7059 44.834 68.5389 44.8705C68.2044 44.9437 67.7602 44.9988 67.2395 45.038C66.25 45.1124 65.1039 45.1217 64.1348 45.1295C64.0862 45.1299 64.038 45.1303 63.9904 45.1307L63.9903 45.1307L63.9612 45.1309L64.0491 34.5928L64.1114 34.5923L64.1115 34.5923C65.1031 34.5841 66.316 34.5786 67.3514 34.6475C67.871 34.6821 68.314 34.7335 68.6466 34.8037C68.8128 34.8387 68.9284 34.8738 69.0018 34.9031C69.014 34.9079 69.0239 34.9122 69.0317 34.9157C69.1076 35.0058 69.1903 35.1683 69.2412 35.5705C69.3027 36.0565 69.2993 36.7157 69.2908 37.7291Z" fill="#FF9950" stroke="#FFFCFB" stroke-width="2"/>
<path d="M43.0979 34.7691L55.5939 34.6945L55.5059 45.2328L43.01 45.3074L43.0979 34.7691Z" fill="#FF9950" stroke="#FFFCFB" stroke-width="2"/>
</svg>
