<svg width="14" height="14" viewBox="0 0 14 14" fill="none" xmlns="http://www.w3.org/2000/svg">
<path d="M3.17968 14H0.455078V5.24025H3.17968V14ZM1.80273 4.06838C0.953123 4.06838 0.25 3.33596 0.25 2.45706C0.25 1.60745 0.953123 0.904328 1.80273 0.904328C2.68163 0.904328 3.38476 1.60745 3.38476 2.45706C3.38476 3.33596 2.68163 4.06838 1.80273 4.06838ZM13.3457 14H10.6504V9.75196C10.6504 8.72657 10.6211 7.43752 9.21482 7.43752C7.80858 7.43752 7.6035 8.5215 7.6035 9.66407V14H4.8789V5.24025H7.48631V6.44142H7.51561C7.89647 5.7676 8.77537 5.03518 10.0937 5.03518C12.8476 5.03518 13.375 6.85158 13.375 9.19532V14H13.3457Z" fill="white"/>
</svg>
