<svg width="74" height="74" viewBox="0 0 74 74" fill="none" xmlns="http://www.w3.org/2000/svg">
<circle cx="37" cy="37" r="26.5" stroke="#FF9950"/>
<circle cx="37" cy="37" r="16.5" stroke="#FF9950"/>
<circle cx="37" cy="37" r="6.5" stroke="#FF9950"/>
<path d="M61.3186 16.3685C59.6775 14.3026 55.4132 10.8064 49.8446 10.8064C46.1216 10.8064 42.5784 12.372 39.3142 15.4599C39.309 15.4654 39.3035 15.4708 39.2981 15.4763C36.1153 18.7698 36.5313 21.8119 37.058 25.6657C37.0904 25.9026 37.1231 26.1429 37.1557 26.387C37.2429 27.0419 36.6734 28.0523 36.1219 29.0294C35.2936 30.4974 34.4374 32.0158 35.4835 32.7325C37.2711 33.958 37.582 36.3704 37.8828 38.7043C37.9541 39.2586 38.0279 39.8313 38.1202 40.3888C38.2797 41.3502 39.0859 41.8173 40.5857 41.8173C41.2522 41.8173 41.9646 41.7347 42.6537 41.6546C43.2444 41.5855 43.8017 41.5209 44.2485 41.5209C44.4979 41.5209 44.6933 41.5409 44.8444 41.5819C46.6465 42.0731 48.2202 45.7374 48.7891 47.9317C48.8355 48.1098 48.9718 48.2501 49.1479 48.3C49.1945 48.3137 49.2419 48.3202 49.2889 48.3202C49.42 48.3202 49.5485 48.2703 49.6456 48.1764L58.8805 39.3121C59.023 39.1746 59.0757 38.9675 59.0157 38.7783C58.2 36.2121 59.8943 33.7081 61.3901 31.4971C62.0423 30.5326 62.6586 29.6221 63.0804 28.7248C65.0246 24.5857 63.6236 19.2694 61.3186 16.3685Z" fill="#FF9950"/>
<path d="M55.4177 23.0554C55.4177 23.268 55.2452 23.4405 55.0326 23.4405H51.952C51.7394 23.4405 51.5669 23.268 51.5669 23.0554C51.5669 22.8428 51.7394 22.6703 51.952 22.6703H55.0326C55.2452 22.6703 55.4177 22.8428 55.4177 23.0554ZM55.0326 23.633H51.952C51.6986 23.633 51.5024 23.8778 51.5867 24.1437C51.6376 24.304 51.7999 24.4032 51.9682 24.4032H51.9739C52.1963 24.4032 52.3997 24.5289 52.4992 24.7278L52.5032 24.7359C52.6374 25.0039 52.9114 25.1733 53.2112 25.1733H53.7734C54.0732 25.1733 54.3472 25.0039 54.4812 24.7359L54.4853 24.7278C54.5848 24.5289 54.7881 24.4032 55.0105 24.4032H55.0163C55.1846 24.4032 55.3469 24.304 55.3977 24.1437C55.4822 23.8778 55.286 23.633 55.0326 23.633ZM53.4923 11.3105C53.7049 11.3105 53.8774 11.138 53.8774 10.9254V9.38508C53.8774 9.17252 53.7049 9 53.4923 9C53.2797 9 53.1072 9.17252 53.1072 9.38508V10.9254C53.1072 11.138 53.2797 11.3105 53.4923 11.3105ZM49.408 12.7767C49.483 12.852 49.5816 12.8895 49.6802 12.8895C49.7788 12.8895 49.8774 12.852 49.9525 12.7767C50.1028 12.6263 50.1028 12.3825 49.9525 12.2322L48.8633 11.143C48.7131 10.9926 48.4689 10.9926 48.3188 11.143C48.1684 11.2933 48.1684 11.5371 48.3188 11.6875L49.408 12.7767ZM48.4863 16.3165C48.4863 16.104 48.3137 15.9314 48.1012 15.9314H46.5609C46.3483 15.9314 46.1758 16.104 46.1758 16.3165C46.1758 16.5291 46.3483 16.7016 46.5609 16.7016H48.1012C48.3138 16.7016 48.4863 16.5291 48.4863 16.3165ZM49.408 19.8564L48.3188 20.9456C48.1684 21.0959 48.1684 21.3397 48.3188 21.4901C48.3939 21.5653 48.4924 21.6029 48.591 21.6029C48.6896 21.6029 48.7882 21.5653 48.8633 21.4901L49.9525 20.4009C50.1028 20.2505 50.1028 20.0067 49.9525 19.8564C49.8023 19.706 49.5581 19.706 49.408 19.8564ZM57.5767 19.8564C57.4263 19.706 57.1825 19.706 57.0322 19.8564C56.8818 20.0067 56.8818 20.2505 57.0322 20.4009L58.1214 21.4901C58.1966 21.5653 58.2951 21.6029 58.3936 21.6029C58.4922 21.6029 58.5906 21.5653 58.6659 21.4901C58.8162 21.3397 58.8162 21.0959 58.6659 20.9456L57.5767 19.8564ZM60.4237 15.9314H58.8834C58.6709 15.9314 58.4983 16.104 58.4983 16.3165C58.4983 16.5291 58.6709 16.7016 58.8834 16.7016H60.4237C60.6363 16.7016 60.8088 16.5291 60.8088 16.3165C60.8088 16.104 60.6363 15.9314 60.4237 15.9314ZM57.3044 12.8895C57.4029 12.8895 57.5013 12.852 57.5766 12.7767L58.6658 11.6875C58.8162 11.5371 58.8162 11.2933 58.6658 11.143C58.5155 10.9926 58.2717 10.9926 58.1213 11.143L57.0321 12.2322C56.8818 12.3826 56.8818 12.6263 57.0321 12.7767C57.1073 12.852 57.2058 12.8895 57.3044 12.8895ZM55.4177 22.0927C55.4177 22.3053 55.2452 22.4778 55.0326 22.4778H51.952C51.7394 22.4778 51.5669 22.3053 51.5669 22.0927C51.5669 21.8877 51.7277 21.7215 51.9298 21.7099C51.6901 19.5431 49.449 19.0604 49.449 16.5091C49.449 14.276 51.2592 12.4657 53.4923 12.4657C55.7254 12.4657 57.5356 14.276 57.5356 16.5091C57.5356 19.0604 55.2945 19.5431 55.0548 21.71C55.2569 21.7215 55.4177 21.8877 55.4177 22.0927ZM56.5 16.5C56.5 15 55.0548 13.5 53.5 13.5C51.9452 13.5 50.5 14.567 50.5 16.5C50.5 18.5 52 18.5 52.6049 21.4901C53.3215 21.6751 53.7841 21.6777 54.5 21.4901C54.5 19.5 56.5 18 56.5 16.5Z" fill="#FF9950"/>
<path d="M55.4177 23.0555C55.4177 23.2681 55.2452 23.4406 55.0326 23.4406H51.952C51.7394 23.4406 51.5669 23.2681 51.5669 23.0555C51.5669 22.8429 51.7394 22.6704 51.952 22.6704H55.0326C55.2452 22.6704 55.4177 22.8429 55.4177 23.0555ZM55.0326 23.6331H51.952C51.6986 23.6331 51.5024 23.8779 51.5867 24.1437C51.6376 24.3041 51.7999 24.4033 51.9682 24.4033H51.9739C52.1963 24.4033 52.3997 24.529 52.4992 24.7279L52.5032 24.736C52.6374 25.004 52.9114 25.1734 53.2112 25.1734H53.7734C54.0732 25.1734 54.3472 25.004 54.4812 24.736L54.4853 24.7279C54.5848 24.529 54.7881 24.4033 55.0105 24.4033H55.0163C55.1846 24.4033 55.3469 24.3041 55.3977 24.1437C55.4822 23.8778 55.286 23.6331 55.0326 23.6331ZM49.408 12.7768C49.483 12.852 49.5816 12.8896 49.6802 12.8896C49.7788 12.8896 49.8774 12.852 49.9525 12.7768C50.1028 12.6264 50.1028 12.3826 49.9525 12.2323L48.8633 11.1431C48.7131 10.9927 48.4689 10.9927 48.3188 11.1431C48.1684 11.2934 48.1684 11.5372 48.3188 11.6875L49.408 12.7768ZM48.4863 16.3166C48.4863 16.104 48.3137 15.9315 48.1012 15.9315H46.5609C46.3483 15.9315 46.1758 16.104 46.1758 16.3166C46.1758 16.5292 46.3483 16.7017 46.5609 16.7017H48.1012C48.3138 16.7017 48.4863 16.5292 48.4863 16.3166ZM49.408 19.8564L48.3188 20.9457C48.1684 21.096 48.1684 21.3398 48.3188 21.4901C48.3939 21.5654 48.4924 21.603 48.591 21.603C48.6896 21.603 48.7882 21.5654 48.8633 21.4901L49.9525 20.4009C50.1028 20.2506 50.1028 20.0068 49.9525 19.8564C49.8023 19.7061 49.5581 19.7061 49.408 19.8564ZM57.5767 19.8564C57.4263 19.7061 57.1825 19.7061 57.0322 19.8564C56.8818 20.0068 56.8818 20.2506 57.0322 20.4009L58.1214 21.4901C58.1966 21.5654 58.2951 21.603 58.3936 21.603C58.4922 21.603 58.5906 21.5654 58.6659 21.4901C58.8162 21.3398 58.8162 21.096 58.6659 20.9457L57.5767 19.8564ZM60.4237 15.9315H58.8834C58.6709 15.9315 58.4983 16.104 58.4983 16.3166C58.4983 16.5292 58.6709 16.7017 58.8834 16.7017H60.4237C60.6363 16.7017 60.8088 16.5292 60.8088 16.3166C60.8088 16.104 60.6363 15.9315 60.4237 15.9315ZM55.4177 22.0928C55.4177 22.3054 55.2452 22.4779 55.0326 22.4779H51.952C51.7394 22.4779 51.5669 22.3054 51.5669 22.0928C51.5669 21.8877 51.7277 21.7216 51.9298 21.71C51.6901 19.5432 49.449 19.0605 49.449 16.5091C49.449 14.2761 51.2592 12.4658 53.4923 12.4658C55.7254 12.4658 57.5356 14.2761 57.5356 16.5091C57.5356 19.0605 55.2945 19.5432 55.0548 21.71C55.2569 21.7216 55.4177 21.8877 55.4177 22.0928ZM56.5 16.5001C56.5 15.0001 55.0548 13.5001 53.5 13.5001C51.9452 13.5001 50.5 14.5671 50.5 16.5001C50.5 18.5001 52 18.5001 52.6049 21.4901C53.3215 21.6752 53.7841 21.6778 54.5 21.4901C54.5 19.5001 56.5 18.0001 56.5 16.5001Z" fill="white"/>
<path d="M8.6814 33.5622C10.3226 31.4962 14.587 28 20.1556 28C23.8787 28 27.422 29.5656 30.6862 32.6536C30.6914 32.6591 30.6969 32.6644 30.7023 32.67C33.8851 35.9636 33.4692 39.0057 32.9425 42.8596C32.9101 43.0965 32.8773 43.3368 32.8447 43.5809C32.7576 44.2357 33.3271 45.2462 33.8785 46.2233C34.7068 47.6914 35.5631 49.2097 34.5169 49.9265C32.7293 51.152 32.4185 53.5644 32.1177 55.8984C32.0464 56.4527 31.9725 57.0254 31.8802 57.5829C31.7207 58.5443 30.9145 59.0114 29.4147 59.0114C28.7482 59.0114 28.0358 58.9288 27.3467 58.8487C26.756 58.7796 26.1986 58.7151 25.7518 58.7151C25.5025 58.7151 25.307 58.735 25.1559 58.776C23.3538 59.2673 21.7801 62.9316 21.2111 65.126C21.1648 65.304 21.0285 65.4443 20.8523 65.4943C20.8057 65.508 20.7583 65.5144 20.7113 65.5144C20.5803 65.5144 20.4517 65.4646 20.3547 65.3707L11.1196 56.5062C10.9771 56.3687 10.9244 56.1616 10.9844 55.9724C11.8001 53.4061 10.1057 50.9021 8.6099 48.6911C7.95773 47.7265 7.34146 46.816 6.91957 45.9188C4.97542 41.7795 6.37642 36.4632 8.6814 33.5622Z" fill="#FF9950"/>
<path fill-rule="evenodd" clip-rule="evenodd" d="M20.5144 32.5471C24.2543 32.9804 26.4363 35.2897 26.439 38.8174C26.4415 41.9907 24.6278 44.2269 21.8166 44.5168C19.29 44.7774 17.6561 43.6292 17.6638 41.5985C17.6692 40.1636 18.4508 39.2204 19.9818 38.801C20.5542 38.6441 20.6903 37.9963 20.2144 37.6936C19.7304 37.3856 18.3443 37.9665 17.5184 38.8233C15.6846 40.7256 16.2452 44.0765 18.5916 45.2383C20.4418 46.1544 23.1242 45.8991 24.9241 44.6358C26.8414 43.29 27.9119 40.7276 27.6524 38.1051C27.6312 37.8906 27.6062 37.6311 27.5969 37.5286L27.5798 37.342L27.6332 37.4579C28.0708 38.4077 28.2159 40.3255 27.9489 41.6312C27.1641 45.4697 23.4108 48.222 19.8087 47.6006C16.4161 47.0153 14.4729 44.8875 14.3712 41.6465C14.2624 38.1812 16.2681 35.7834 19.3687 35.6723C21.7584 35.5866 23.1333 36.6547 23.1333 38.5969C23.1333 40.0873 22.1903 41.1683 20.7237 41.3589C20.1848 41.429 19.9919 41.5491 19.9063 41.8679C19.7608 42.4101 20.2219 42.7011 21.0085 42.5635C23.9784 42.0439 25.3391 38.7826 23.6537 36.2234C22.0987 33.8623 17.6432 33.8042 15.2181 36.1133C13.8909 37.377 13.001 39.6554 13.122 41.4798C13.1468 41.8527 13.105 41.8014 13.0253 41.3611C12.5388 38.6726 13.7328 35.6754 15.9496 34.0203C17.3292 32.9903 19.1811 32.3926 20.5144 32.5471Z" fill="white"/>
</svg>
