<svg width="12" height="16" viewBox="0 0 12 16" fill="none" xmlns="http://www.w3.org/2000/svg">
<path d="M5.78566 0.498047C3.73877 0.498047 2.07471 2.09546 2.07471 4.06036C2.07471 5.98776 3.64502 7.54767 5.69191 7.61517C5.75441 7.60767 5.81691 7.60767 5.86378 7.61517C5.87941 7.61517 5.88722 7.61517 5.90284 7.61517C5.91066 7.61517 5.91066 7.61517 5.91847 7.61517C7.91847 7.54767 9.48879 5.98776 9.4966 4.06036C9.4966 2.09546 7.83254 0.498047 5.78566 0.498047Z" fill="#bebbbb"/>
<path d="M9.75439 9.62237C7.5747 8.22744 4.02003 8.22744 1.82471 9.62237C0.832521 10.2523 0.285645 11.1148 0.285645 12.0372C0.285645 12.9597 0.832521 13.8146 1.8169 14.4446C2.91065 15.1496 4.34813 15.5021 5.78563 15.5021C7.22313 15.5021 8.66064 15.1496 9.75439 14.4446C10.7388 13.8071 11.2856 12.9522 11.2856 12.0222C11.2778 11.1073 10.7388 10.2448 9.75439 9.62237Z" fill="#bebbbb"/>
</svg>
