<svg width="16" height="13" viewBox="0 0 16 13" fill="none" xmlns="http://www.w3.org/2000/svg">
<path d="M13.947 3.32815C13.947 3.47463 13.947 3.59182 13.947 3.7383C13.947 7.81056 10.8708 12.4687 5.21654 12.4687C3.45873 12.4687 1.84741 11.9707 0.499756 11.0918C0.73413 11.1211 0.968505 11.1504 1.23218 11.1504C2.66772 11.1504 3.98608 10.6523 5.04076 9.83204C3.69311 9.80274 2.55053 8.92384 2.16967 7.69337C2.37475 7.72267 2.55053 7.75196 2.75561 7.75196C3.01928 7.75196 3.31225 7.69337 3.54662 7.63478C2.14038 7.34181 1.08569 6.11134 1.08569 4.6172V4.58791C1.49585 4.82228 1.99389 4.93947 2.49194 4.96877C1.64233 4.41213 1.11499 3.47463 1.11499 2.41994C1.11499 1.83401 1.26147 1.30667 1.52514 0.867214C3.04858 2.71291 5.33373 3.94338 7.88255 4.08986C7.82396 3.85549 7.79466 3.62111 7.79466 3.38674C7.79466 1.68752 9.17161 0.310574 10.8708 0.310574C11.7497 0.310574 12.5407 0.662136 13.1267 1.27737C13.8005 1.13088 14.4743 0.867214 15.0603 0.515652C14.8259 1.24807 14.3571 1.83401 13.7126 2.21487C14.3278 2.15627 14.9431 1.98049 15.4704 1.74612C15.0603 2.36135 14.5329 2.88869 13.947 3.32815Z" fill="white"/>
</svg>
